<svg fill="none" xmlns="http://www.w3.org/2000/svg" viewBox="0 0 32 32">
  <path fill="url(#a)" style="mix-blend-mode:exclusion" d="M0 0h32v32H0z"/>
  <mask id="b" maskUnits="userSpaceOnUse" x="4" y="12" width="22" height="11" fill="#000">
    <path fill="#fff" d="M4 12h22v11H4z"/>
    <path d="m6 21 2.25-6.15c.127-.327.327-.57.6-.73a1.75 1.75 0 0 1 .93-.25c.347 0 .657.08.93.24.28.16.48.403.6.73L13.56 21h-2.05l-.41-1.28H8.42L7.99 21H6Zm2.87-2.8h1.79l-.77-2.53a.097.097 0 0 0-.04-.06.123.123 0 0 0-.07-.02c-.02 0-.04.007-.06.02a.231.231 0 0 0-.04.06l-.81 2.53Zm10.192 2.92c-.413 0-.8-.087-1.16-.26a2.148 2.148 0 0 1-.86-.76c-.213-.333-.32-.73-.32-1.19v-2.88c0-.1-.023-.187-.07-.26a.405.405 0 0 0-.17-.18.514.514 0 0 0-.25-.06.467.467 0 0 0-.43.24.474.474 0 0 0-.07.26V21h-1.85v-4.9c0-.453.107-.847.32-1.18a2.15 2.15 0 0 1 .85-.77c.36-.187.753-.28 1.18-.28.427 0 .817.093 1.17.28.353.18.637.437.85.77.213.333.32.727.32 1.18v2.88a.507.507 0 0 0 .25.44c.073.04.153.06.24.06a.493.493 0 0 0 .43-.24.507.507 0 0 0 .07-.26V16.1c0-.453.107-.847.32-1.18a2.15 2.15 0 0 1 .85-.77c.36-.187.753-.28 1.18-.28.42 0 .807.093 1.16.28.353.18.637.437.85.77.213.333.32.727.32 1.18V21h-1.84v-4.99a.455.455 0 0 0-.07-.25.489.489 0 0 0-.42-.23c-.093 0-.18.02-.26.06a.489.489 0 0 0-.18.17.514.514 0 0 0-.06.25v2.9c0 .46-.11.857-.33 1.19-.22.333-.507.587-.86.76-.353.173-.74.26-1.16.26Z"/>
  </mask>
  <path d="m6 21-.94-.344L4.57 22H6v-1Zm2.25-6.15-.932-.361-.004.008-.003.01.939.343Zm.6-.73.505.863.008-.005.008-.004-.521-.854Zm1.86-.01-.505.863.009.005.496-.868Zm.6.73.94-.343-.001-.002-.939.345ZM13.56 21v1h1.43l-.49-1.343-.94.343Zm-2.05 0-.952.305.222.695h.73v-1Zm-.41-1.28.952-.305-.222-.695h-.73v1Zm-2.68 0v-1h-.719l-.229.682.948.318ZM7.99 21v1h.719l.229-.682L7.99 21Zm.88-2.8-.952-.305L7.5 19.2h1.37v-1Zm1.79 0v1h1.35l-.393-1.291-.957.291Zm-.77-2.53-.97.242.006.025.007.024.957-.291Zm-.04-.06.555-.832-.555.832Zm-.13 0-.555-.832-.082.055-.07.07.707.707Zm-.04.06-.894-.447-.035.069-.023.073.952.305Zm-2.74 5.674 2.25-6.15-1.88-.688-2.25 6.15 1.88.688Zm2.242-6.133c.055-.14.116-.194.173-.228l-1.01-1.726c-.49.286-.828.718-1.027 1.232l1.864.722Zm.189-.237a.753.753 0 0 1 .409-.104v-2a2.75 2.75 0 0 0-1.45.396l1.04 1.708Zm.409-.104a.81.81 0 0 1 .425.103l1.01-1.726a2.805 2.805 0 0 0-1.435-.377v2Zm.434.108c.059.034.112.082.157.207l1.878-.69a2.338 2.338 0 0 0-1.043-1.253l-.992 1.736Zm.157.205 2.25 6.16 1.878-.686-2.25-6.16-1.878.686ZM13.56 20h-2.05v2h2.05v-2Zm-1.098.695-.41-1.28-1.904.61.41 1.28 1.904-.61ZM11.1 18.72H8.42v2h2.68v-2Zm-3.628.682-.43 1.28 1.896.636.43-1.28-1.896-.636ZM7.99 20H6v2h1.99v-2Zm.88-.8h1.79v-2H8.87v2Zm2.747-1.291-.77-2.53-1.914.582.77 2.53 1.914-.582Zm-.757-2.481a1.096 1.096 0 0 0-.455-.65l-1.11 1.664a.903.903 0 0 1-.375-.53l1.94-.485Zm-.455-.65a1.123 1.123 0 0 0-.625-.188v2a.878.878 0 0 1-.485-.148l1.11-1.664Zm-.625-.188c-.254 0-.464.088-.615.188l1.11 1.664a.894.894 0 0 1-.495.148v-2Zm-.767.313c-.12.12-.19.246-.227.32l1.788.894a.835.835 0 0 1-.147.2l-1.414-1.414Zm-.285.462-.81 2.53 1.904.61.81-2.53-1.904-.61Zm9.174 5.495-.44.898.006.003.434-.901Zm-.86-.76-.842.54.008.01.834-.55Zm-.39-4.33-.894.447.023.046.027.044.844-.537Zm-.17-.18-.479.878.48-.878Zm-.5 0 .479.878-.479-.878Zm-.18.18.844.537.01-.016.01-.017-.864-.504Zm-.07 5.23v1h1v-1h-1Zm-1.85 0h-1v1h1v-1Zm.32-6.08-.842-.54.842.54Zm.85-.77.454.891.006-.003-.46-.888Zm2.35 0-.467.884.007.004.006.003.454-.891Zm1.24 5.09-.864.504.01.017.01.016.844-.537Zm.18.18-.537.844.029.018.03.016.478-.878Zm.48 0 .479.878.013-.007.012-.007-.504-.864Zm.19-.18.844.537.01-.016.01-.017-.864-.504Zm1.24-5.09.454.891.006-.003-.46-.888Zm2.34 0-.467.884.007.004.006.003.454-.891Zm.85.77-.842.54.842-.54Zm.32 6.08v1h1v-1h-1Zm-1.84 0h-1v1h1v-1Zm-.07-5.24-.844.537.844-.537Zm-.18-.17-.479.878.48-.878Zm-.5 0-.447-.894-.016.008-.016.008.48.878Zm-.18.17-.844-.537-.018.029-.016.03.878.478Zm-.39 4.34-.835-.55.835.55Zm-.86.76.44.898-.44-.898Zm-1.16-.74a1.64 1.64 0 0 1-.726-.161l-.868 1.802c.5.24 1.036.359 1.594.359v-2Zm-.72-.158a1.149 1.149 0 0 1-.465-.413l-1.67 1.102c.317.48.739.854 1.255 1.107l.88-1.796Zm-.458-.401c-.094-.148-.162-.35-.162-.651h-2c0 .62.146 1.21.478 1.73l1.684-1.08Zm-.162-.651v-2.88h-2v2.88h2Zm0-2.88c0-.26-.063-.54-.226-.797l-1.688 1.074a.531.531 0 0 1-.086-.277h2Zm-.175-.707a1.404 1.404 0 0 0-.586-.61l-.958 1.755a.596.596 0 0 1-.245-.25l1.789-.895Zm-.586-.61a1.513 1.513 0 0 0-.729-.183v2a.489.489 0 0 1-.229-.062l.958-1.756Zm-.729-.183c-.24 0-.492.053-.729.182l.958 1.756a.49.49 0 0 1-.229.062v-2Zm-.729.182c-.25.137-.436.334-.565.554l1.728 1.008a.536.536 0 0 1-.205.194l-.958-1.756Zm-.545.521a1.473 1.473 0 0 0-.226.797h2a.53.53 0 0 1-.086.277l-1.688-1.074Zm-.226.797V21h2v-4.97h-2Zm1 3.97h-1.85v2h1.85v-2Zm-.85 1v-4.9h-2V21h2Zm0-4.9c0-.29.066-.491.162-.64l-1.684-1.08c-.33.518-.478 1.104-.478 1.72h2Zm.162-.64c.118-.184.267-.32.462-.419l-.908-1.782a3.15 3.15 0 0 0-1.238 1.122l1.684 1.078Zm.468-.422c.21-.11.445-.168.72-.168v-2c-.578 0-1.13.128-1.64.392l.92 1.776Zm.72-.168c.275 0 .503.059.703.164l.934-1.768a3.465 3.465 0 0 0-1.637-.396v2Zm.716.171c.195.1.345.235.462.418l1.684-1.078a3.15 3.15 0 0 0-1.238-1.122l-.908 1.782Zm.462.418c.096.15.162.35.162.641h2c0-.616-.147-1.202-.478-1.72l-1.684 1.08Zm.162.641v2.88h2V16.1h-2Zm0 2.88c0 .269.07.53.206.764l1.728-1.008a.493.493 0 0 1 .066.244h-2Zm.226.797c.126.197.29.361.487.487l1.074-1.688c.05.032.095.077.127.127l-1.688 1.074Zm.545.52c.226.124.472.183.72.183v-2c.073 0 .159.019.238.062l-.958 1.756Zm.72.183c.247 0 .492-.059.718-.182l-.958-1.756a.507.507 0 0 1 .24-.062v2Zm.743-.196c.208-.122.392-.29.53-.507l-1.688-1.074a.455.455 0 0 1 .15-.147l1.008 1.728Zm.55-.54c.136-.234.206-.495.206-.764h-2c0-.082.023-.17.066-.244l1.728 1.008Zm.206-.764V16.1h-2v2.88h2Zm0-2.88c0-.29.066-.491.162-.64l-1.684-1.08c-.33.518-.478 1.104-.478 1.72h2Zm.162-.64c.118-.184.267-.32.462-.419l-.908-1.782a3.15 3.15 0 0 0-1.238 1.122l1.684 1.078Zm.468-.422c.21-.11.445-.168.72-.168v-2c-.578 0-1.13.128-1.64.392l.92 1.776Zm.72-.168c.266 0 .491.058.693.164l.934-1.768a3.445 3.445 0 0 0-1.627-.396v2Zm.706.171c.195.1.345.235.462.418l1.684-1.078a3.15 3.15 0 0 0-1.238-1.122l-.908 1.782Zm.462.418c.096.15.162.35.162.641h2c0-.616-.147-1.202-.478-1.72l-1.684 1.08Zm.162.641V21h2v-4.9h-2Zm1 3.9h-1.84v2h1.84v-2Zm-.84 1v-4.99h-2V21h2Zm0-4.99c0-.269-.07-.541-.226-.787l-1.688 1.074a.546.546 0 0 1-.086-.287h2Zm-.226-.787a1.489 1.489 0 0 0-.545-.51l-.958 1.755a.513.513 0 0 1-.185-.171l1.688-1.074Zm-.545-.51a1.493 1.493 0 0 0-.719-.183v2a.507.507 0 0 1-.239-.062l.958-1.756Zm-.719-.183c-.241 0-.482.053-.707.166l.894 1.788a.427.427 0 0 1-.187.046v-2Zm-.739.182a1.488 1.488 0 0 0-.545.511l1.688 1.074a.513.513 0 0 1-.185.17l-.958-1.755Zm-.579.57c-.129.236-.182.487-.182.728h2a.49.49 0 0 1-.062.229l-1.756-.958Zm-.182.728v2.9h2v-2.9h-2Zm0 2.9c0 .295-.068.493-.165.64l1.67 1.1c.343-.52.495-1.115.495-1.74h-2Zm-.165.64c-.123.186-.274.319-.465.412l.88 1.796a3.147 3.147 0 0 0 1.255-1.107l-1.67-1.102Zm-.465.412a1.6 1.6 0 0 1-.72.158v2c.562 0 1.101-.117 1.6-.362l-.88-1.796Z" fill="#000" mask="url(#b)"/>
  <defs>
    <linearGradient id="a" x1="16" y1="0" x2="16" y2="32" gradientUnits="userSpaceOnUse">
      <stop offset=".28" stop-color="#63C1DB"/>
      <stop offset=".81" stop-color="#9080E9"/>
      <stop offset=".945" stop-color="#E0769C"/>
    </linearGradient>
  </defs>
</svg>