<svg width="459" height="139" fill="none" xmlns="http://www.w3.org/2000/svg"><mask id="a" maskUnits="userSpaceOnUse" x="7.772" y="21.591" width="271" height="77" fill="#000"><path fill="#fff" d="M7.772 21.591h271v77h-271z"/><path d="M11.74 93.591v-67.2h15.552v54.528h33.696v12.672H11.74Zm87.137 1.152c-9.536 0-16.992-2.656-22.368-7.968-5.376-5.312-8.064-12.896-8.064-22.752V26.391h15.552v37.056c0 6.4 1.312 11.008 3.936 13.824 2.624 2.816 6.304 4.224 11.04 4.224 4.736 0 8.416-1.408 11.04-4.224 2.624-2.816 3.936-7.424 3.936-13.824V26.391h15.36v37.632c0 9.856-2.688 17.44-8.064 22.752-5.376 5.312-12.832 7.968-22.368 7.968Zm77.96 0c-5.184 0-10.016-.832-14.496-2.496-4.416-1.728-8.256-4.16-11.52-7.296-3.264-3.136-5.824-6.816-7.68-11.04-1.792-4.224-2.688-8.864-2.688-13.92 0-5.056.896-9.696 2.688-13.92 1.856-4.224 4.416-7.904 7.68-11.04 3.328-3.136 7.2-5.536 11.616-7.2 4.416-1.728 9.248-2.592 14.496-2.592 5.824 0 11.072 1.024 15.744 3.072 4.736 1.984 8.704 4.928 11.904 8.832l-9.984 9.216c-2.304-2.624-4.864-4.576-7.68-5.856-2.816-1.344-5.888-2.016-9.216-2.016-3.136 0-6.016.512-8.64 1.536-2.624 1.024-4.896 2.496-6.816 4.416-1.92 1.92-3.424 4.192-4.512 6.816-1.024 2.624-1.536 5.536-1.536 8.736 0 3.2.512 6.112 1.536 8.736 1.088 2.624 2.592 4.896 4.512 6.816 1.92 1.92 4.192 3.392 6.816 4.416 2.624 1.024 5.504 1.536 8.64 1.536 3.328 0 6.4-.64 9.216-1.92 2.816-1.344 5.376-3.36 7.68-6.048l9.984 9.216c-3.2 3.904-7.168 6.88-11.904 8.928-4.672 2.048-9.952 3.072-15.84 3.072Zm54.388-1.152V66.135l3.552 9.408-29.568-49.152h16.512l22.656 37.728h-9.504l22.752-37.728h15.264l-29.568 49.152 3.456-9.408v27.456h-15.552Z"/></mask><path d="M11.74 93.591h-3v3h3v-3Zm0-67.2v-3h-3v3h3Zm15.552 0h3v-3h-3v3Zm0 54.528h-3v3h3v-3Zm33.696 0h3v-3h-3v3Zm0 12.672v3h3v-3h-3Zm-46.248 0v-67.2h-6v67.2h6Zm-3-64.2h15.552v-6H11.74v6Zm12.552-3v54.528h6V26.391h-6Zm3 57.528h33.696v-6H27.292v6Zm30.696-3v12.672h6V80.919h-6Zm3 9.672H11.74v6h49.248v-6Zm15.521-3.816 2.109-2.134-2.109 2.134Zm-8.064-60.384v-3h-3v3h3Zm15.552 0h3v-3h-3v3Zm3.936 50.88-2.195 2.045 2.195-2.045Zm22.08 0 2.195 2.045-2.195-2.045Zm3.936-50.88v-3h-3v3h3Zm15.36 0h3v-3h-3v3Zm-8.064 60.384 2.109 2.134-2.109-2.134Zm-22.368 4.968c-8.964 0-15.582-2.48-20.26-7.102L74.4 88.909c6.076 6.003 14.369 8.834 24.477 8.834v-6Zm-20.26-7.102c-4.646-4.592-7.172-11.31-7.172-20.618h-6c0 10.404 2.85 18.854 8.956 24.886l4.217-4.268Zm-7.172-20.618V26.391h-6v37.632h6Zm-3-34.632h15.552v-6H68.445v6Zm12.552-3v37.056h6V26.391h-6Zm0 37.056c0 6.688 1.35 12.23 4.741 15.87l4.39-4.091c-1.856-1.992-3.13-5.667-3.13-11.779h-6Zm4.741 15.87c3.318 3.56 7.873 5.178 13.235 5.178v-6c-4.11 0-6.915-1.198-8.845-3.27l-4.39 4.091Zm13.235 5.178c5.363 0 9.917-1.618 13.235-5.179l-4.39-4.09c-1.93 2.07-4.735 3.269-8.845 3.269v6Zm13.235-5.179c3.392-3.64 4.741-9.181 4.741-15.869h-6c0 6.112-1.274 9.787-3.131 11.779l4.39 4.09Zm4.741-15.869V26.391h-6v37.056h6Zm-3-34.056h15.36v-6h-15.36v6Zm12.36-3v37.632h6V26.391h-6Zm0 37.632c0 9.309-2.525 16.026-7.172 20.618l4.217 4.268c6.105-6.032 8.955-14.483 8.955-24.886h-6Zm-7.172 20.618c-4.677 4.621-11.296 7.102-20.26 7.102v6c10.108 0 18.402-2.831 24.477-8.834l-4.217-4.268Zm43.204 7.606-1.093 2.794.024.01.025.008 1.044-2.812Zm-11.52-7.296-2.078 2.163 2.078-2.163Zm-7.68-11.04-2.761 1.172.007.017.008.018 2.746-1.207Zm0-27.84-2.746-1.207-.008.018-.007.017 2.761 1.172Zm7.68-11.04-2.057-2.183-.011.01-.01.01 2.078 2.163Zm11.616-7.2 1.058 2.807.018-.006.018-.007-1.094-2.794Zm30.24.48-1.204 2.748.022.01.023.009 1.159-2.767Zm11.904 8.832 2.035 2.204 2.079-1.918-1.793-2.188-2.321 1.902Zm-9.984 9.216-2.254 1.98 2.029 2.31 2.26-2.086-2.035-2.204Zm-7.68-5.856-1.292 2.707.025.012.026.012 1.241-2.731Zm-24.672 3.936 2.122 2.121-2.122-2.121Zm-4.512 6.816-2.771-1.15-.012.03-.011.03 2.794 1.09Zm0 17.472-2.794 1.09.011.03.012.029 2.771-1.149Zm4.512 6.816-2.121 2.121 2.121-2.121Zm24.672 4.032 1.242 2.731.025-.011.026-.013-1.293-2.707Zm7.68-6.048 2.035-2.204-2.287-2.112-2.025 2.364 2.277 1.952Zm9.984 9.216 2.321 1.902 1.793-2.188-2.079-1.918-2.035 2.204Zm-11.904 8.928-1.19-2.754-.007.003-.007.003 1.204 2.748Zm-15.84.072c-4.857 0-9.333-.779-13.451-2.308l-2.089 5.624c4.841 1.799 10.03 2.684 15.54 2.684v-6Zm-13.402-2.29c-4.068-1.591-7.568-3.815-10.535-6.665l-4.157 4.326c3.561 3.422 7.74 6.062 12.505 7.927l2.187-5.588ZM152.9 82.788c-2.975-2.859-5.311-6.212-7.012-10.084l-5.493 2.414c2.011 4.576 4.795 8.583 8.348 11.996l4.157-4.326Zm-6.997-10.049c-1.619-3.817-2.45-8.053-2.45-12.748h-6c0 5.417.962 10.46 2.927 15.092l5.523-2.344Zm-2.45-12.748c0-4.695.831-8.931 2.45-12.748l-5.523-2.344c-1.965 4.631-2.927 9.675-2.927 15.092h6Zm2.435-12.713c1.701-3.872 4.037-7.225 7.012-10.084l-4.157-4.326c-3.553 3.413-6.337 7.42-8.348 11.996l5.493 2.414Zm6.991-10.064c3.03-2.855 6.559-5.047 10.616-6.576l-2.115-5.614c-4.776 1.799-8.99 4.407-12.616 7.824l4.115 4.366Zm10.652-6.59c4.032-1.577 8.489-2.385 13.402-2.385v-6c-5.582 0-10.789.92-15.589 2.798l2.187 5.588Zm13.402-2.385c5.468 0 10.298.96 14.54 2.82l2.409-5.496c-5.102-2.236-10.769-3.324-16.949-3.324v6Zm14.585 2.839c4.292 1.798 7.859 4.448 10.743 7.967l4.641-3.804c-3.517-4.29-7.886-7.527-13.065-9.697l-2.319 5.534Zm11.029 3.86-9.984 9.217 4.069 4.408 9.984-9.216-4.069-4.408Zm-5.695 9.442c-2.549-2.903-5.443-5.13-8.693-6.608l-2.483 5.462c2.382 1.083 4.607 2.759 6.667 5.104l4.509-3.958Zm-8.642-6.585c-3.247-1.549-6.764-2.308-10.509-2.308v6c2.912 0 5.538.585 7.924 1.723l2.585-5.415Zm-10.509-2.308c-3.467 0-6.721.567-9.73 1.741l2.181 5.59c2.239-.874 4.744-1.331 7.549-1.331v-6Zm-9.73 1.741c-2.996 1.17-5.623 2.865-7.847 5.09l4.243 4.242c1.615-1.615 3.533-2.863 5.785-3.742l-2.181-5.59Zm-7.847 5.09c-2.211 2.21-3.93 4.817-5.162 7.788l5.543 2.298c.944-2.278 2.233-4.215 3.862-5.844l-4.243-4.242Zm-5.185 7.846c-1.177 3.016-1.742 6.304-1.742 9.827h6c0-2.877.46-5.413 1.331-7.645l-5.589-2.182Zm-1.742 9.827c0 3.523.565 6.811 1.742 9.827l5.589-2.182c-.871-2.232-1.331-4.768-1.331-7.645h-6Zm1.765 9.885c1.232 2.97 2.951 5.577 5.162 7.788l4.243-4.242c-1.629-1.63-2.918-3.567-3.862-5.844l-5.543 2.298Zm5.162 7.788c2.224 2.225 4.851 3.92 7.847 5.09l2.181-5.59c-2.252-.879-4.17-2.127-5.785-3.742l-4.243 4.242Zm7.847 5.09c3.009 1.174 6.263 1.741 9.73 1.741v-6c-2.805 0-5.31-.457-7.549-1.33l-2.181 5.589Zm9.73 1.741c3.724 0 7.223-.719 10.458-2.189l-2.483-5.462c-2.397 1.09-5.042 1.651-7.975 1.651v6Zm10.509-2.213c3.241-1.546 6.125-3.84 8.665-6.803l-4.555-3.904c-2.069 2.413-4.304 4.151-6.695 5.293l2.585 5.414Zm4.353-6.55 9.984 9.215 4.069-4.408-9.984-9.216-4.069 4.408Zm9.698 5.11c-2.89 3.525-6.467 6.213-10.774 8.075l2.381 5.507c5.165-2.233 9.523-5.497 13.034-9.78l-4.641-3.803Zm-10.788 8.081c-4.238 1.858-9.099 2.82-14.636 2.82v6c6.239 0 11.939-1.086 17.045-3.324l-2.409-5.496Zm39.752 4.668h-3v3h3v-3Zm0-27.456 2.807-1.06-5.807 1.06h3Zm3.552 9.408-2.571 1.546 5.378-2.606-2.807 1.06Zm-29.568-49.152v-3h-5.306l2.735 4.546 2.571-1.546Zm16.512 0 2.572-1.544-.874-1.456h-1.698v3Zm22.656 37.728v3h5.301l-2.729-4.544-2.572 1.544Zm-9.504 0-2.569-1.55-2.743 4.55h5.312v-3Zm22.752-37.728v-3h-1.694l-.875 1.45 2.569 1.55Zm15.264 0 2.571 1.546 2.735-4.546h-5.306v3Zm-29.568 49.152-2.816-1.035 5.387 2.581-2.571-1.546Zm3.456-9.408h3l-5.816-1.035 2.816 1.035Zm0 27.456v3h3v-3h-3Zm-12.552 0V66.135h-6v27.456h6Zm-5.807-26.396 3.552 9.408 5.614-2.12-3.552-9.408-5.614 2.12Zm8.93 6.802L207.78 24.843l-5.142 3.093 29.568 49.152 5.142-3.093ZM205.209 29.39h16.512v-6h-16.512v6Zm13.94-1.456 22.656 37.728 5.144-3.088-22.656-37.729-5.144 3.09Zm25.228 33.184h-9.504v6h9.504v-6Zm-6.935 4.55 22.752-37.729-5.138-3.098-22.752 37.728 5.138 3.098Zm20.183-36.278h15.264v-6h-15.264v6Zm12.693-4.546L240.75 73.996l5.142 3.093 29.568-49.152-5.142-3.093Zm-24.181 51.732 3.456-9.408-5.632-2.069-3.456 9.409 5.632 2.068Zm-2.36-10.442v27.456h6V66.135h-6Zm3 24.456h-15.552v6h15.552v-6Z" fill="#FFF8F8" mask="url(#a)"/><path d="m283.636 93.591 29.664-67.2h18.72l29.76 67.2h-19.776l-23.232-57.888h7.488l-23.232 57.888h-19.392Zm16.224-13.056 4.896-14.016h32.832l4.896 14.016H299.86Zm67.309 13.056v-67.2h15.648l27.84 45.696h-8.256l27.072-45.696h15.648l.192 67.2h-17.472l-.192-40.608h2.976l-20.256 33.984h-8.448l-20.832-33.984h3.648v40.608h-17.568Z" fill="#FFF8F8"/><g filter="url(#b)"><path d="M11.512 126.288c-1.344 0-2.632-.176-3.864-.528-1.232-.368-2.224-.84-2.976-1.416l1.32-2.928c.72.512 1.568.936 2.544 1.272.992.32 1.992.48 3 .48.768 0 1.384-.072 1.848-.216.48-.16.832-.376 1.056-.648a1.43 1.43 0 0 0 .336-.936c0-.448-.176-.8-.528-1.056-.352-.272-.816-.488-1.392-.648a20.999 20.999 0 0 0-1.92-.48 27.233 27.233 0 0 1-2.088-.576 8.91 8.91 0 0 1-1.896-.864 4.358 4.358 0 0 1-1.416-1.392c-.352-.576-.528-1.312-.528-2.208 0-.96.256-1.832.768-2.616.528-.8 1.312-1.432 2.352-1.896 1.056-.48 2.376-.72 3.96-.72 1.056 0 2.096.128 3.12.384 1.024.24 1.928.608 2.712 1.104l-1.2 2.952a9.82 9.82 0 0 0-2.352-.984 8.363 8.363 0 0 0-2.304-.336c-.752 0-1.368.088-1.848.264-.48.176-.824.408-1.032.696a1.535 1.535 0 0 0-.312.96c0 .432.176.784.528 1.056.352.256.816.464 1.392.624.576.16 1.208.32 1.896.48.704.16 1.4.344 2.088.552a8.02 8.02 0 0 1 1.92.84c.576.352 1.04.816 1.392 1.392.368.576.552 1.304.552 2.184 0 .944-.264 1.808-.792 2.592s-1.32 1.416-2.376 1.896c-1.04.48-2.36.72-3.96.72Zm9.52-.288v-12.912h3.745V126h-3.744Zm1.873-14.712c-.688 0-1.248-.2-1.68-.6a1.946 1.946 0 0 1-.648-1.488c0-.592.216-1.088.648-1.488.432-.4.992-.6 1.68-.6s1.248.192 1.68.576c.432.368.648.848.648 1.44 0 .624-.216 1.144-.648 1.56-.416.4-.976.6-1.68.6Zm21.882 1.608c1.024 0 1.928.208 2.712.624.8.4 1.424 1.024 1.872 1.872.464.832.696 1.904.696 3.216V126h-3.744v-6.816c0-1.04-.216-1.808-.648-2.304-.432-.496-1.04-.744-1.824-.744-.544 0-1.032.128-1.464.384-.432.24-.768.608-1.008 1.104-.24.496-.36 1.128-.36 1.896V126h-3.744v-6.816c0-1.04-.216-1.808-.648-2.304-.416-.496-1.016-.744-1.8-.744-.544 0-1.032.128-1.464.384-.432.24-.768.608-1.008 1.104-.24.496-.36 1.128-.36 1.896V126h-3.744v-12.912h3.576v3.528l-.672-1.032c.448-.88 1.08-1.544 1.896-1.992.832-.464 1.776-.696 2.832-.696 1.184 0 2.216.304 3.096.912.896.592 1.488 1.504 1.776 2.736l-1.32-.36a5.189 5.189 0 0 1 2.064-2.4c.96-.592 2.056-.888 3.288-.888Zm16.268 13.296c-1.088 0-2.04-.24-2.856-.72-.816-.48-1.456-1.208-1.92-2.184-.448-.992-.672-2.24-.672-3.744 0-1.52.216-2.768.648-3.744.432-.976 1.056-1.704 1.872-2.184.816-.48 1.792-.72 2.928-.72 1.216 0 2.304.28 3.264.84a5.907 5.907 0 0 1 2.304 2.304c.576.992.864 2.16.864 3.504 0 1.36-.288 2.536-.864 3.528a5.907 5.907 0 0 1-2.304 2.304c-.96.544-2.048.816-3.264.816Zm-7.632 4.464v-17.568H57v2.64l-.072 3.84.24 3.816v7.272h-3.744Zm6.984-7.536c.624 0 1.176-.144 1.656-.432a3.095 3.095 0 0 0 1.176-1.224c.304-.544.456-1.184.456-1.92 0-.752-.152-1.392-.456-1.92a3.095 3.095 0 0 0-1.176-1.224c-.48-.288-1.032-.432-1.656-.432-.624 0-1.184.144-1.68.432a3.095 3.095 0 0 0-1.176 1.224c-.288.528-.432 1.168-.432 1.92 0 .736.144 1.376.432 1.92.288.528.68.936 1.176 1.224a3.284 3.284 0 0 0 1.68.432Zm9.587 2.88v-17.808h3.744V126h-3.744Zm7.218 0v-12.912h3.744V126h-3.744Zm1.872-14.712c-.688 0-1.248-.2-1.68-.6a1.946 1.946 0 0 1-.648-1.488c0-.592.216-1.088.648-1.488.432-.4.992-.6 1.68-.6s1.248.192 1.68.576c.432.368.648.848.648 1.44 0 .624-.216 1.144-.648 1.56-.416.4-.976.6-1.68.6ZM84.887 126v-13.2c0-1.456.432-2.616 1.296-3.48.864-.88 2.096-1.32 3.696-1.32.544 0 1.064.056 1.56.168.512.112.944.288 1.296.528l-.984 2.712a2.55 2.55 0 0 0-.696-.336 2.72 2.72 0 0 0-.816-.12c-.544 0-.968.16-1.272.48-.288.304-.432.768-.432 1.392v1.2l.096 1.608V126h-3.744Zm-1.992-9.744v-2.88h8.952v2.88h-8.952Zm12.684 14.592a6.555 6.555 0 0 1-1.992-.312c-.656-.208-1.192-.496-1.608-.864l1.368-2.664c.288.256.616.456.984.6a3.2 3.2 0 0 0 1.128.216c.528 0 .944-.128 1.248-.384.32-.24.608-.648.864-1.224l.672-1.584.288-.408 4.632-11.136h3.6l-5.832 13.704c-.416 1.04-.896 1.856-1.44 2.448-.528.592-1.12 1.008-1.776 1.248-.64.24-1.352.36-2.136.36Zm2.208-4.344-5.76-13.416h3.864l4.464 10.8-2.568 2.616ZM108.29 126v-12.912h3.744V126h-3.744Zm1.872-14.712c-.688 0-1.248-.2-1.68-.6a1.946 1.946 0 0 1-.648-1.488c0-.592.216-1.088.648-1.488.432-.4.992-.6 1.68-.6s1.248.192 1.68.576c.432.368.648.848.648 1.44 0 .624-.216 1.144-.648 1.56-.416.4-.976.6-1.68.6Zm13.194 1.608c1.024 0 1.936.208 2.736.624.816.4 1.456 1.024 1.92 1.872.464.832.696 1.904.696 3.216V126h-3.744v-6.816c0-1.04-.232-1.808-.696-2.304-.448-.496-1.088-.744-1.92-.744-.592 0-1.128.128-1.608.384-.464.24-.832.616-1.104 1.128-.256.512-.384 1.168-.384 1.968V126h-3.744v-12.912h3.576v3.576l-.672-1.08a4.782 4.782 0 0 1 1.992-1.992c.864-.464 1.848-.696 2.952-.696Zm14.912 17.952c-1.216 0-2.392-.152-3.528-.456-1.12-.288-2.056-.728-2.808-1.32l1.488-2.688c.544.448 1.232.8 2.064 1.056.848.272 1.68.408 2.496.408 1.328 0 2.288-.296 2.88-.888.608-.592.912-1.472.912-2.64v-1.944l.24-3.24-.048-3.264v-2.784h3.552v10.752c0 2.4-.624 4.168-1.872 5.304-1.248 1.136-3.04 1.704-5.376 1.704Zm-.576-5.472c-1.2 0-2.288-.256-3.264-.768a6.351 6.351 0 0 1-2.328-2.184c-.576-.944-.864-2.04-.864-3.288 0-1.264.288-2.36.864-3.288a6.098 6.098 0 0 1 2.328-2.184c.976-.512 2.064-.768 3.264-.768 1.088 0 2.048.224 2.88.672.832.432 1.48 1.112 1.944 2.04.464.912.696 2.088.696 3.528 0 1.424-.232 2.6-.696 3.528-.464.912-1.112 1.592-1.944 2.04-.832.448-1.792.672-2.88.672Zm.744-3.072c.656 0 1.24-.128 1.752-.384a3.022 3.022 0 0 0 1.2-1.128c.288-.48.432-1.032.432-1.656 0-.64-.144-1.192-.432-1.656a2.86 2.86 0 0 0-1.2-1.104c-.512-.272-1.096-.408-1.752-.408-.656 0-1.24.136-1.752.408a3.02 3.02 0 0 0-1.224 1.104c-.288.464-.432 1.016-.432 1.656 0 .624.144 1.176.432 1.656.304.48.712.856 1.224 1.128.512.256 1.096.384 1.752.384ZM153.854 126l7.488-16.8h3.84l7.512 16.8h-4.08l-6.144-14.832h1.536L157.838 126h-3.984Zm3.744-3.6 1.032-2.952h8.64l1.056 2.952h-10.728Zm16.839 3.6v-16.8h3.888V126h-3.888Zm6.963 3.696 1.584-5.76.528 2.16c-.688 0-1.256-.2-1.704-.6-.432-.4-.648-.952-.648-1.656s.224-1.264.672-1.68c.448-.416 1-.624 1.656-.624.672 0 1.224.216 1.656.648.432.416.648.968.648 1.656 0 .208-.016.416-.048.624a4.935 4.935 0 0 1-.192.72c-.08.272-.216.624-.408 1.056l-1.368 3.456H181.4ZM195.39 126v-16.8h7.272c1.504 0 2.8.248 3.888.744 1.088.48 1.928 1.176 2.52 2.088.592.912.888 2 .888 3.264 0 1.248-.296 2.328-.888 3.24-.592.912-1.432 1.616-2.52 2.112-1.088.48-2.384.72-3.888.72h-5.112l1.728-1.752V126h-3.888Zm3.888-5.952-1.728-1.848h4.896c1.2 0 2.096-.256 2.688-.768.592-.512.888-1.224.888-2.136 0-.928-.296-1.648-.888-2.16-.592-.512-1.488-.768-2.688-.768h-4.896l1.728-1.848v9.528Zm19.313 6.144c-1.376 0-2.6-.288-3.672-.864a6.726 6.726 0 0 1-2.52-2.352c-.608-1.008-.912-2.152-.912-3.432 0-1.296.304-2.44.912-3.432a6.482 6.482 0 0 1 2.52-2.352c1.072-.576 2.296-.864 3.672-.864 1.36 0 2.576.288 3.648.864 1.072.56 1.912 1.336 2.52 2.328.608.992.912 2.144.912 3.456 0 1.28-.304 2.424-.912 3.432-.608.992-1.448 1.776-2.52 2.352-1.072.576-2.288.864-3.648.864Zm0-3.072c.624 0 1.184-.144 1.68-.432a3.095 3.095 0 0 0 1.176-1.224c.288-.544.432-1.184.432-1.92 0-.752-.144-1.392-.432-1.92a3.095 3.095 0 0 0-1.176-1.224 3.284 3.284 0 0 0-1.68-.432c-.624 0-1.184.144-1.68.432a3.266 3.266 0 0 0-1.2 1.224c-.288.528-.432 1.168-.432 1.92 0 .736.144 1.376.432 1.92.304.528.704.936 1.2 1.224a3.284 3.284 0 0 0 1.68.432Zm12.183 2.88-4.656-12.912h3.528l3.864 11.112h-1.68l4.032-11.112h3.168l3.912 11.112h-1.68l3.984-11.112h3.312L243.878 126h-3.624l-3.432-9.528h1.104L234.374 126h-3.6Zm25.581.192c-1.472 0-2.768-.288-3.888-.864-1.104-.576-1.96-1.36-2.568-2.352-.608-1.008-.912-2.152-.912-3.432 0-1.296.296-2.44.888-3.432a6.353 6.353 0 0 1 2.472-2.352c1.04-.576 2.216-.864 3.528-.864 1.264 0 2.4.272 3.408.816a5.896 5.896 0 0 1 2.424 2.304c.592.992.888 2.184.888 3.576 0 .144-.008.312-.024.504l-.048.504h-10.488v-2.184h8.52l-1.44.648c0-.672-.136-1.256-.408-1.752a2.895 2.895 0 0 0-1.128-1.152c-.48-.288-1.04-.432-1.68-.432-.64 0-1.208.144-1.704.432-.48.272-.856.664-1.128 1.176-.272.496-.408 1.088-.408 1.776v.576c0 .704.152 1.328.456 1.872.32.528.76.936 1.32 1.224.576.272 1.248.408 2.016.408.688 0 1.288-.104 1.8-.312a4.378 4.378 0 0 0 1.44-.936l1.992 2.16c-.592.672-1.336 1.192-2.232 1.56-.896.352-1.928.528-3.096.528Zm8.732-.192v-12.912h3.576v3.648l-.504-1.056c.384-.912 1-1.6 1.848-2.064.848-.48 1.88-.72 3.096-.72v3.456a4.383 4.383 0 0 0-.432-.024 3.293 3.293 0 0 0-.408-.024c-1.024 0-1.856.296-2.496.888-.624.576-.936 1.48-.936 2.712V126h-3.744Zm10.266 0v-12.912h3.744V126h-3.744Zm1.872-14.712c-.688 0-1.248-.2-1.68-.6a1.946 1.946 0 0 1-.648-1.488c0-.592.216-1.088.648-1.488.432-.4.992-.6 1.68-.6s1.248.192 1.68.576c.432.368.648.848.648 1.44 0 .624-.216 1.144-.648 1.56-.416.4-.976.6-1.68.6Zm13.195 1.608c1.024 0 1.936.208 2.736.624.816.4 1.456 1.024 1.92 1.872.464.832.696 1.904.696 3.216V126h-3.744v-6.816c0-1.04-.232-1.808-.696-2.304-.448-.496-1.088-.744-1.92-.744-.592 0-1.128.128-1.608.384-.464.24-.832.616-1.104 1.128-.256.512-.384 1.168-.384 1.968V126h-3.744v-12.912h3.576v3.576l-.672-1.08a4.782 4.782 0 0 1 1.992-1.992c.864-.464 1.848-.696 2.952-.696Zm14.911 17.952c-1.216 0-2.392-.152-3.528-.456-1.12-.288-2.056-.728-2.808-1.32l1.488-2.688c.544.448 1.232.8 2.064 1.056.848.272 1.68.408 2.496.408 1.328 0 2.288-.296 2.88-.888.608-.592.912-1.472.912-2.64v-1.944l.24-3.24-.048-3.264v-2.784h3.552v10.752c0 2.4-.624 4.168-1.872 5.304-1.248 1.136-3.04 1.704-5.376 1.704Zm-.576-5.472c-1.2 0-2.288-.256-3.264-.768a6.351 6.351 0 0 1-2.328-2.184c-.576-.944-.864-2.04-.864-3.288 0-1.264.288-2.36.864-3.288a6.098 6.098 0 0 1 2.328-2.184c.976-.512 2.064-.768 3.264-.768 1.088 0 2.048.224 2.88.672.832.432 1.48 1.112 1.944 2.04.464.912.696 2.088.696 3.528 0 1.424-.232 2.6-.696 3.528-.464.912-1.112 1.592-1.944 2.04-.832.448-1.792.672-2.88.672Zm.744-3.072c.656 0 1.24-.128 1.752-.384a3.022 3.022 0 0 0 1.2-1.128c.288-.48.432-1.032.432-1.656 0-.64-.144-1.192-.432-1.656a2.86 2.86 0 0 0-1.2-1.104c-.512-.272-1.096-.408-1.752-.408-.656 0-1.24.136-1.752.408a3.02 3.02 0 0 0-1.224 1.104c-.288.464-.432 1.016-.432 1.656 0 .624.144 1.176.432 1.656.304.48.712.856 1.224 1.128.512.256 1.096.384 1.752.384ZM323.125 126v-16.8h3.888V126h-3.888Zm15.459-13.104c1.024 0 1.936.208 2.736.624.816.4 1.456 1.024 1.92 1.872.464.832.696 1.904.696 3.216V126h-3.744v-6.816c0-1.04-.232-1.808-.696-2.304-.448-.496-1.088-.744-1.92-.744-.592 0-1.128.128-1.608.384-.464.24-.832.616-1.104 1.128-.256.512-.384 1.168-.384 1.968V126h-3.744v-12.912h3.576v3.576l-.672-1.08a4.782 4.782 0 0 1 1.992-1.992c.864-.464 1.848-.696 2.952-.696Zm16.594 0c1.024 0 1.936.208 2.736.624.816.4 1.456 1.024 1.92 1.872.464.832.696 1.904.696 3.216V126h-3.744v-6.816c0-1.04-.232-1.808-.696-2.304-.448-.496-1.088-.744-1.92-.744-.592 0-1.128.128-1.608.384-.464.24-.832.616-1.104 1.128-.256.512-.384 1.168-.384 1.968V126h-3.744v-12.912h3.576v3.576l-.672-1.08a4.782 4.782 0 0 1 1.992-1.992c.864-.464 1.848-.696 2.952-.696Zm14.983 13.296c-1.376 0-2.6-.288-3.672-.864a6.726 6.726 0 0 1-2.52-2.352c-.608-1.008-.912-2.152-.912-3.432 0-1.296.304-2.44.912-3.432a6.482 6.482 0 0 1 2.52-2.352c1.072-.576 2.296-.864 3.672-.864 1.36 0 2.576.288 3.648.864 1.072.56 1.912 1.336 2.52 2.328.608.992.912 2.144.912 3.456 0 1.28-.304 2.424-.912 3.432-.608.992-1.448 1.776-2.52 2.352-1.072.576-2.288.864-3.648.864Zm0-3.072c.624 0 1.184-.144 1.68-.432a3.095 3.095 0 0 0 1.176-1.224c.288-.544.432-1.184.432-1.92 0-.752-.144-1.392-.432-1.92a3.095 3.095 0 0 0-1.176-1.224 3.284 3.284 0 0 0-1.68-.432c-.624 0-1.184.144-1.68.432a3.266 3.266 0 0 0-1.2 1.224c-.288.528-.432 1.168-.432 1.92 0 .736.144 1.376.432 1.92.304.528.704.936 1.2 1.224a3.284 3.284 0 0 0 1.68.432Zm12.735 2.88-5.424-12.912h3.864l4.512 11.112h-1.92l4.68-11.112h3.6L386.76 126h-3.864Zm18.338 0v-2.52l-.24-.552v-4.512c0-.8-.248-1.424-.744-1.872-.48-.448-1.224-.672-2.232-.672-.688 0-1.368.112-2.04.336-.656.208-1.216.496-1.68.864l-1.344-2.616c.704-.496 1.552-.88 2.544-1.152.992-.272 2-.408 3.024-.408 1.968 0 3.496.464 4.584 1.392 1.088.928 1.632 2.376 1.632 4.344V126h-3.504Zm-3.936.192c-1.008 0-1.872-.168-2.592-.504-.72-.352-1.272-.824-1.656-1.416a3.582 3.582 0 0 1-.576-1.992c0-.768.184-1.44.552-2.016.384-.576.984-1.024 1.8-1.344.816-.336 1.88-.504 3.192-.504h3.432v2.184h-3.024c-.88 0-1.488.144-1.824.432-.32.288-.48.648-.48 1.08 0 .48.184.864.552 1.152.384.272.904.408 1.56.408.624 0 1.184-.144 1.68-.432.496-.304.856-.744 1.08-1.32l.576 1.728c-.272.832-.768 1.464-1.488 1.896-.72.432-1.648.648-2.784.648Zm16.108 0c-1.52 0-2.704-.384-3.552-1.152-.848-.784-1.272-1.944-1.272-3.48v-11.328h3.744v11.28c0 .544.144.968.432 1.272.288.288.68.432 1.176.432.592 0 1.096-.16 1.512-.48l1.008 2.64c-.384.272-.848.48-1.392.624a7.006 7.006 0 0 1-1.656.192Zm-6.816-9.936v-2.88h8.952v2.88h-8.952ZM418.556 126v-12.912h3.744V126h-3.744Zm1.872-14.712c-.688 0-1.248-.2-1.68-.6a1.946 1.946 0 0 1-.648-1.488c0-.592.216-1.088.648-1.488.432-.4.992-.6 1.68-.6s1.248.192 1.68.576c.432.368.648.848.648 1.44 0 .624-.216 1.144-.648 1.56-.416.4-.976.6-1.68.6Zm11.491 14.904c-1.376 0-2.6-.288-3.672-.864a6.726 6.726 0 0 1-2.52-2.352c-.608-1.008-.912-2.152-.912-3.432 0-1.296.304-2.44.912-3.432a6.482 6.482 0 0 1 2.52-2.352c1.072-.576 2.296-.864 3.672-.864 1.36 0 2.576.288 3.648.864 1.072.56 1.912 1.336 2.52 2.328.608.992.912 2.144.912 3.456 0 1.28-.304 2.424-.912 3.432-.608.992-1.448 1.776-2.52 2.352-1.072.576-2.288.864-3.648.864Zm0-3.072c.624 0 1.184-.144 1.68-.432a3.095 3.095 0 0 0 1.176-1.224c.288-.544.432-1.184.432-1.92 0-.752-.144-1.392-.432-1.92a3.095 3.095 0 0 0-1.176-1.224 3.284 3.284 0 0 0-1.68-.432c-.624 0-1.184.144-1.68.432a3.266 3.266 0 0 0-1.2 1.224c-.288.528-.432 1.168-.432 1.92 0 .736.144 1.376.432 1.92.304.528.704.936 1.2 1.224a3.284 3.284 0 0 0 1.68.432Zm17.43-10.224c1.024 0 1.936.208 2.736.624.816.4 1.456 1.024 1.92 1.872.464.832.696 1.904.696 3.216V126h-3.744v-6.816c0-1.04-.232-1.808-.696-2.304-.448-.496-1.088-.744-1.92-.744-.592 0-1.128.128-1.608.384-.464.24-.832.616-1.104 1.128-.256.512-.384 1.168-.384 1.968V126h-3.744v-12.912h3.576v3.576l-.672-1.08a4.782 4.782 0 0 1 1.992-1.992c.864-.464 1.848-.696 2.952-.696Z" fill="#FFF8F8"/></g><defs><filter id="b" x=".672" y="107.112" width="458.029" height="31.736" filterUnits="userSpaceOnUse" color-interpolation-filters="sRGB"><feFlood flood-opacity="0" result="BackgroundImageFix"/><feColorMatrix in="SourceAlpha" values="0 0 0 0 0 0 0 0 0 0 0 0 0 0 0 0 0 0 127 0" result="hardAlpha"/><feOffset dy="4"/><feGaussianBlur stdDeviation="2"/><feComposite in2="hardAlpha" operator="out"/><feColorMatrix values="0 0 0 0 0 0 0 0 0 0 0 0 0 0 0 0 0 0 0.25 0"/><feBlend in2="BackgroundImageFix" result="effect1_dropShadow_54_3"/><feBlend in="SourceGraphic" in2="effect1_dropShadow_54_3" result="shape"/></filter></defs></svg>