<svg width="450" height="118" fill="none" xmlns="http://www.w3.org/2000/svg"><mask id="a" maskUnits="userSpaceOnUse" x="4.466" y="21.591" width="271" height="77" fill="#000"><path fill="#fff" d="M4.466 21.591h271v77h-271z"/><path d="M8.434 93.591v-67.2h15.552v54.528h33.696v12.672H8.434Zm87.137 1.152c-9.536 0-16.992-2.656-22.368-7.968-5.376-5.312-8.064-12.896-8.064-22.752V26.391h15.552v37.056c0 6.4 1.312 11.008 3.936 13.824 2.624 2.816 6.304 4.224 11.04 4.224 4.736 0 8.416-1.408 11.04-4.224 2.624-2.816 3.936-7.424 3.936-13.824V26.391h15.36v37.632c0 9.856-2.688 17.44-8.064 22.752-5.376 5.312-12.832 7.968-22.368 7.968Zm77.961 0c-5.184 0-10.016-.832-14.496-2.496-4.416-1.728-8.256-4.16-11.52-7.296-3.264-3.136-5.824-6.816-7.68-11.04-1.792-4.224-2.688-8.864-2.688-13.92 0-5.056.896-9.696 2.688-13.92 1.856-4.224 4.416-7.904 7.68-11.04 3.328-3.136 7.2-5.536 11.616-7.2 4.416-1.728 9.248-2.592 14.496-2.592 5.824 0 11.072 1.024 15.744 3.072 4.736 1.984 8.704 4.928 11.904 8.832l-9.984 9.216c-2.304-2.624-4.864-4.576-7.68-5.856-2.816-1.344-5.888-2.016-9.216-2.016-3.136 0-6.016.512-8.64 1.536-2.624 1.024-4.896 2.496-6.816 4.416-1.92 1.92-3.424 4.192-4.512 6.816-1.024 2.624-1.536 5.536-1.536 8.736 0 3.2.512 6.112 1.536 8.736 1.088 2.624 2.592 4.896 4.512 6.816 1.92 1.92 4.192 3.392 6.816 4.416 2.624 1.024 5.504 1.536 8.64 1.536 3.328 0 6.4-.64 9.216-1.92 2.816-1.344 5.376-3.36 7.68-6.048l9.984 9.216c-3.2 3.904-7.168 6.88-11.904 8.928-4.672 2.048-9.952 3.072-15.84 3.072Zm54.387-1.152V66.135l3.552 9.408-29.568-49.152h16.512l22.656 37.728h-9.504l22.752-37.728h15.264l-29.568 49.152 3.456-9.408v27.456h-15.552Z"/></mask><path d="M8.434 93.591h-3v3h3v-3Zm0-67.2v-3h-3v3h3Zm15.552 0h3v-3h-3v3Zm0 54.528h-3v3h3v-3Zm33.696 0h3v-3h-3v3Zm0 12.672v3h3v-3h-3Zm-46.248 0v-67.2h-6v67.2h6Zm-3-64.2h15.552v-6H8.434v6Zm12.552-3v54.528h6V26.391h-6Zm3 57.528h33.696v-6H23.986v6Zm30.696-3v12.672h6V80.919h-6Zm3 9.672H8.434v6h49.248v-6Zm15.521-3.816 2.109-2.134-2.109 2.134ZM65.14 26.391v-3h-3v3h3Zm15.552 0h3v-3h-3v3Zm3.936 50.88-2.194 2.045 2.194-2.045Zm22.08 0 2.195 2.045-2.195-2.045Zm3.936-50.88v-3h-3v3h3Zm15.36 0h3v-3h-3v3Zm-8.064 60.384 2.109 2.134-2.109-2.134Zm-22.368 4.968c-8.963 0-15.582-2.48-20.26-7.102l-4.216 4.268c6.075 6.003 14.368 8.834 24.476 8.834v-6Zm-20.26-7.102c-4.646-4.592-7.172-11.31-7.172-20.618h-6c0 10.404 2.85 18.854 8.956 24.886l4.217-4.268ZM68.14 64.023V26.391h-6v37.632h6Zm-3-34.632h15.552v-6H65.14v6Zm12.552-3v37.056h6V26.391h-6Zm0 37.056c0 6.688 1.35 12.23 4.742 15.87l4.39-4.091c-1.857-1.992-3.132-5.667-3.132-11.779h-6Zm4.742 15.87c3.318 3.56 7.872 5.178 13.234 5.178v-6c-4.11 0-6.915-1.198-8.845-3.27l-4.39 4.091Zm13.234 5.178c5.363 0 9.917-1.618 13.235-5.179l-4.39-4.09c-1.929 2.07-4.735 3.269-8.845 3.269v6Zm13.235-5.179c3.392-3.64 4.741-9.181 4.741-15.869h-6c0 6.112-1.274 9.787-3.131 11.779l4.39 4.09Zm4.741-15.869V26.391h-6v37.056h6Zm-3-34.056h15.36v-6h-15.36v6Zm12.36-3v37.632h6V26.391h-6Zm0 37.632c0 9.309-2.525 16.026-7.172 20.618l4.217 4.268c6.105-6.032 8.955-14.483 8.955-24.886h-6Zm-7.172 20.618c-4.677 4.621-11.296 7.102-20.26 7.102v6c10.109 0 18.402-2.831 24.477-8.834l-4.217-4.268Zm43.205 7.606-1.094 2.794.025.01.024.008 1.045-2.812Zm-11.52-7.296-2.079 2.163 2.079-2.163Zm-7.68-11.04-2.762 1.172.007.017.008.018 2.747-1.207Zm0-27.84-2.747-1.207-.008.018-.007.017 2.762 1.172Zm7.68-11.04-2.058-2.183-.01.01-.011.01 2.079 2.163Zm11.616-7.2 1.057 2.807.018-.006.018-.007-1.093-2.794Zm30.24.48-1.205 2.748.023.01.022.009 1.16-2.767Zm11.904 8.832 2.034 2.204 2.079-1.918-1.793-2.188-2.32 1.902Zm-9.984 9.216-2.255 1.98 2.029 2.31 2.26-2.086-2.034-2.204Zm-7.68-5.856-1.293 2.707.026.012.025.012 1.242-2.731Zm-24.672 3.936 2.121 2.121-2.121-2.121Zm-4.512 6.816-2.772-1.15-.012.03-.011.03 2.795 1.09Zm0 17.472-2.795 1.09.011.03.012.029 2.772-1.149Zm4.512 6.816-2.122 2.121 2.122-2.121Zm24.672 4.032 1.241 2.731.025-.011.026-.013-1.292-2.707Zm7.68-6.048 2.034-2.204-2.287-2.112-2.025 2.364 2.278 1.952Zm9.984 9.216 2.32 1.902 1.793-2.188-2.079-1.918-2.034 2.204Zm-11.904 8.928-1.191-2.754-.007.003-.007.003 1.205 2.748Zm-15.84.072c-4.858 0-9.333-.779-13.452-2.308l-2.089 5.624c4.842 1.799 10.03 2.684 15.541 2.684v-6Zm-13.403-2.29c-4.067-1.591-7.568-3.815-10.535-6.665l-4.157 4.326c3.561 3.422 7.741 6.062 12.505 7.927l2.187-5.588Zm-10.535-6.665c-2.975-2.859-5.311-6.212-7.012-10.084l-5.493 2.414c2.011 4.576 4.795 8.583 8.348 11.996l4.157-4.326Zm-6.997-10.049c-1.619-3.817-2.449-8.053-2.449-12.748h-6c0 5.417.961 10.46 2.926 15.092l5.523-2.344Zm-2.449-12.748c0-4.695.83-8.931 2.449-12.748l-5.523-2.344c-1.965 4.631-2.926 9.675-2.926 15.092h6Zm2.434-12.713c1.701-3.872 4.037-7.225 7.012-10.084l-4.157-4.326c-3.553 3.413-6.337 7.42-8.348 11.996l5.493 2.414Zm6.991-10.064c3.03-2.855 6.559-5.047 10.616-6.576l-2.115-5.614c-4.775 1.799-8.99 4.407-12.616 7.824l4.115 4.366Zm10.652-6.59c4.032-1.577 8.489-2.385 13.403-2.385v-6c-5.583 0-10.79.92-15.59 2.798l2.187 5.588Zm13.403-2.385c5.467 0 10.297.96 14.539 2.82l2.409-5.496c-5.102-2.236-10.768-3.324-16.948-3.324v6Zm14.584 2.839c4.293 1.798 7.859 4.448 10.743 7.967l4.641-3.804c-3.516-4.29-7.886-7.527-13.065-9.697l-2.319 5.534Zm11.029 3.86-9.984 9.217 4.069 4.408 9.984-9.216-4.069-4.408Zm-5.695 9.442c-2.548-2.903-5.443-5.13-8.693-6.608l-2.483 5.462c2.382 1.083 4.608 2.759 6.667 5.104l4.509-3.958Zm-8.642-6.585c-3.246-1.549-6.764-2.308-10.508-2.308v6c2.911 0 5.537.585 7.923 1.723l2.585-5.415Zm-10.508-2.308c-3.467 0-6.722.567-9.731 1.741l2.181 5.59c2.239-.874 4.745-1.331 7.55-1.331v-6Zm-9.731 1.741c-2.996 1.17-5.622 2.865-7.847 5.09l4.243 4.242c1.616-1.615 3.533-2.863 5.785-3.742l-2.181-5.59Zm-7.847 5.09c-2.211 2.21-3.93 4.817-5.162 7.788l5.543 2.298c.944-2.278 2.233-4.215 3.862-5.844l-4.243-4.242Zm-5.185 7.846c-1.177 3.016-1.741 6.304-1.741 9.827h6c0-2.877.459-5.413 1.33-7.645l-5.589-2.182Zm-1.741 9.827c0 3.523.564 6.811 1.741 9.827l5.589-2.182c-.871-2.232-1.33-4.768-1.33-7.645h-6Zm1.764 9.885c1.232 2.97 2.951 5.577 5.162 7.788l4.243-4.242c-1.629-1.63-2.918-3.567-3.862-5.844l-5.543 2.298Zm5.162 7.788c2.225 2.225 4.851 3.92 7.847 5.09l2.181-5.59c-2.252-.879-4.169-2.127-5.785-3.742l-4.243 4.242Zm7.847 5.09c3.009 1.174 6.264 1.741 9.731 1.741v-6c-2.805 0-5.311-.457-7.55-1.33l-2.181 5.589Zm9.731 1.741c3.723 0 7.222-.719 10.457-2.189l-2.483-5.462c-2.397 1.09-5.042 1.651-7.974 1.651v6Zm10.508-2.213c3.241-1.546 6.126-3.84 8.665-6.803l-4.555-3.904c-2.069 2.413-4.304 4.151-6.695 5.293l2.585 5.414Zm4.353-6.55 9.984 9.215 4.069-4.408-9.984-9.216-4.069 4.408Zm9.698 5.11c-2.89 3.525-6.467 6.213-10.774 8.075l2.381 5.507c5.165-2.233 9.524-5.497 13.034-9.78l-4.641-3.803Zm-10.788 8.081c-4.238 1.858-9.099 2.82-14.635 2.82v6c6.239 0 11.938-1.086 17.044-3.324l-2.409-5.496Zm39.752 4.668h-3v3h3v-3Zm0-27.456 2.807-1.06-5.807 1.06h3Zm3.552 9.408-2.57 1.546 5.377-2.606-2.807 1.06Zm-29.568-49.152v-3h-5.305l2.735 4.546 2.57-1.546Zm16.512 0 2.572-1.544-.874-1.456h-1.698v3Zm22.656 37.728v3h5.301l-2.729-4.544-2.572 1.544Zm-9.504 0-2.569-1.55-2.743 4.55h5.312v-3Zm22.752-37.728v-3h-1.694l-.875 1.45 2.569 1.55Zm15.264 0 2.571 1.546 2.735-4.546h-5.306v3Zm-29.568 49.152-2.816-1.035 5.387 2.581-2.571-1.546Zm3.456-9.408h3l-5.816-1.035 2.816 1.035Zm0 27.456v3h3v-3h-3Zm-12.552 0V66.135h-6v27.456h6Zm-5.806-26.396 3.552 9.408 5.613-2.12-3.552-9.408-5.613 2.12Zm8.929 6.802-29.568-49.153-5.141 3.093 29.568 49.152 5.141-3.093ZM201.903 29.39h16.512v-6h-16.512v6Zm13.94-1.456 22.656 37.728 5.144-3.088-22.656-37.729-5.144 3.09Zm25.228 33.184h-9.504v6h9.504v-6Zm-6.935 4.55 22.752-37.729-5.138-3.098-22.752 37.728 5.138 3.098Zm20.183-36.278h15.264v-6h-15.264v6Zm12.694-4.546-29.568 49.151 5.141 3.093 29.568-49.152-5.141-3.093Zm-24.182 51.732 3.456-9.408-5.632-2.069-3.456 9.409 5.632 2.068Zm-2.36-10.442v27.456h6V66.135h-6Zm3 24.456h-15.552v6h15.552v-6Z" fill="#FFF8F8" mask="url(#a)"/><path d="m280.33 93.591 29.664-67.2h18.72l29.76 67.2h-19.776l-23.232-57.888h7.488l-23.232 57.888H280.33Zm16.224-13.056 4.896-14.016h32.832l4.896 14.016h-42.624Zm67.309 13.056v-67.2h15.648l27.84 45.696h-8.256l27.072-45.696h15.648l.192 67.2h-17.472l-.192-40.608h2.976l-20.256 33.984h-8.448l-20.832-33.984h3.648v40.608h-17.568Z" fill="#FFF8F8"/></svg>