<svg width="450" height="118" fill="none" xmlns="http://www.w3.org/2000/svg"><mask id="a" maskUnits="userSpaceOnUse" x="6.466" y="23.591" width="265" height="73" fill="#000"><path fill="#fff" d="M6.466 23.591h265v73h-265z"/><path d="M8.434 93.591v-67.2h15.552v54.528h33.696v12.672H8.434Zm87.137 1.152c-9.536 0-16.992-2.656-22.368-7.968-5.376-5.312-8.064-12.896-8.064-22.752V26.391h15.552v37.056c0 6.4 1.312 11.008 3.936 13.824 2.624 2.816 6.304 4.224 11.04 4.224 4.736 0 8.416-1.408 11.04-4.224 2.624-2.816 3.936-7.424 3.936-13.824V26.391h15.36v37.632c0 9.856-2.688 17.44-8.064 22.752-5.376 5.312-12.832 7.968-22.368 7.968Zm77.961 0c-5.184 0-10.016-.832-14.496-2.496-4.416-1.728-8.256-4.16-11.52-7.296-3.264-3.136-5.824-6.816-7.68-11.04-1.792-4.224-2.688-8.864-2.688-13.92 0-5.056.896-9.696 2.688-13.92 1.856-4.224 4.416-7.904 7.68-11.04 3.328-3.136 7.2-5.536 11.616-7.2 4.416-1.728 9.248-2.592 14.496-2.592 5.824 0 11.072 1.024 15.744 3.072 4.736 1.984 8.704 4.928 11.904 8.832l-9.984 9.216c-2.304-2.624-4.864-4.576-7.68-5.856-2.816-1.344-5.888-2.016-9.216-2.016-3.136 0-6.016.512-8.64 1.536-2.624 1.024-4.896 2.496-6.816 4.416-1.92 1.92-3.424 4.192-4.512 6.816-1.024 2.624-1.536 5.536-1.536 8.736 0 3.2.512 6.112 1.536 8.736 1.088 2.624 2.592 4.896 4.512 6.816 1.92 1.92 4.192 3.392 6.816 4.416 2.624 1.024 5.504 1.536 8.64 1.536 3.328 0 6.4-.64 9.216-1.92 2.816-1.344 5.376-3.36 7.68-6.048l9.984 9.216c-3.2 3.904-7.168 6.88-11.904 8.928-4.672 2.048-9.952 3.072-15.84 3.072Zm54.387-1.152V66.135l3.552 9.408-29.568-49.152h16.512l22.656 37.728h-9.504l22.752-37.728h15.264l-29.568 49.152 3.456-9.408v27.456h-15.552Z"/></mask><path d="M8.434 93.591v-67.2h15.552v54.528h33.696v12.672H8.434Zm87.137 1.152c-9.536 0-16.992-2.656-22.368-7.968-5.376-5.312-8.064-12.896-8.064-22.752V26.391h15.552v37.056c0 6.4 1.312 11.008 3.936 13.824 2.624 2.816 6.304 4.224 11.04 4.224 4.736 0 8.416-1.408 11.04-4.224 2.624-2.816 3.936-7.424 3.936-13.824V26.391h15.36v37.632c0 9.856-2.688 17.44-8.064 22.752-5.376 5.312-12.832 7.968-22.368 7.968Zm77.961 0c-5.184 0-10.016-.832-14.496-2.496-4.416-1.728-8.256-4.16-11.52-7.296-3.264-3.136-5.824-6.816-7.68-11.04-1.792-4.224-2.688-8.864-2.688-13.92 0-5.056.896-9.696 2.688-13.92 1.856-4.224 4.416-7.904 7.68-11.04 3.328-3.136 7.2-5.536 11.616-7.2 4.416-1.728 9.248-2.592 14.496-2.592 5.824 0 11.072 1.024 15.744 3.072 4.736 1.984 8.704 4.928 11.904 8.832l-9.984 9.216c-2.304-2.624-4.864-4.576-7.68-5.856-2.816-1.344-5.888-2.016-9.216-2.016-3.136 0-6.016.512-8.64 1.536-2.624 1.024-4.896 2.496-6.816 4.416-1.92 1.92-3.424 4.192-4.512 6.816-1.024 2.624-1.536 5.536-1.536 8.736 0 3.2.512 6.112 1.536 8.736 1.088 2.624 2.592 4.896 4.512 6.816 1.92 1.92 4.192 3.392 6.816 4.416 2.624 1.024 5.504 1.536 8.64 1.536 3.328 0 6.4-.64 9.216-1.92 2.816-1.344 5.376-3.36 7.68-6.048l9.984 9.216c-3.2 3.904-7.168 6.88-11.904 8.928-4.672 2.048-9.952 3.072-15.84 3.072Zm54.387-1.152V66.135l3.552 9.408-29.568-49.152h16.512l22.656 37.728h-9.504l22.752-37.728h15.264l-29.568 49.152 3.456-9.408v27.456h-15.552Z" fill="#000"/><path d="M8.434 93.591h-1v1h1v-1Zm0-67.2v-1h-1v1h1Zm15.552 0h1v-1h-1v1Zm0 54.528h-1v1h1v-1Zm33.696 0h1v-1h-1v1Zm0 12.672v1h1v-1h-1Zm-48.248 0v-67.2h-2v67.2h2Zm-1-66.2h15.552v-2H8.434v2Zm14.552-1v54.528h2V26.391h-2Zm1 55.528h33.696v-2H23.986v2Zm32.696-1v12.672h2V80.919h-2Zm1 11.672H8.434v2h49.248v-2Zm15.521-5.816.703-.711-.703.711ZM65.14 26.391v-1h-1v1h1Zm15.552 0h1v-1h-1v1Zm3.936 50.88-.731.682.731-.682Zm22.08 0 .732.682-.732-.682Zm3.936-50.88v-1h-1v1h1Zm15.36 0h1v-1h-1v1Zm-8.064 60.384.703.711-.703-.711Zm-22.368 6.968c-9.345 0-16.522-2.598-21.665-7.68L72.5 87.487c5.61 5.543 13.345 8.257 23.071 8.257v-2Zm-21.665-7.68c-5.133-5.071-7.767-12.367-7.767-22.04h-2c0 10.038 2.743 17.911 8.362 23.463l1.405-1.422Zm-7.767-22.04V26.391h-2v37.632h2Zm-1-36.632h15.552v-2H65.14v2Zm14.552-1v37.056h2V26.391h-2Zm0 37.056c0 6.496 1.325 11.415 4.205 14.506l1.463-1.364c-2.368-2.541-3.668-6.838-3.668-13.142h-2Zm4.205 14.506c2.855 3.064 6.826 4.542 11.771 4.542v-2c-4.527 0-7.915-1.338-10.308-3.906l-1.463 1.364Zm11.771 4.542c4.945 0 8.917-1.478 11.772-4.542l-1.463-1.364c-2.393 2.568-5.781 3.906-10.309 3.906v2Zm11.772-4.542c2.88-3.091 4.204-8.01 4.204-14.506h-2c0 6.304-1.299 10.6-3.667 13.142l1.463 1.364Zm4.204-14.506V26.391h-2v37.056h2Zm-1-36.056h15.36v-2h-15.36v2Zm14.36-1v37.632h2V26.391h-2Zm0 37.632c0 9.674-2.634 16.969-7.767 22.04l1.406 1.423c5.619-5.552 8.361-13.425 8.361-23.463h-2Zm-7.767 22.04c-5.142 5.082-12.319 7.68-21.665 7.68v2c9.727 0 17.462-2.714 23.071-8.257l-1.406-1.422Zm41.8 6.184-.365.931.008.003.008.003.349-.937Zm-11.52-7.296-.693.721.693-.721Zm-7.68-11.04-.921.39.005.012.916-.402Zm0-27.84-.916-.402-.005.011.921.391Zm7.68-11.04-.686-.728-.007.007.693.721Zm11.616-7.2.352.936.012-.005-.364-.931Zm30.24.48-.402.916.008.003.007.003.387-.922Zm11.904 8.832.678.735.693-.64-.598-.729-.773.634Zm-9.984 9.216-.752.66.677.77.753-.695-.678-.735Zm-7.68-5.856-.431.903.008.004.009.003.414-.91Zm-24.672 3.936.707.707-.707-.707Zm-4.512 6.816-.924-.383-.004.01-.004.01.932.363Zm0 17.472-.932.364.004.01.004.009.924-.383Zm4.512 6.816-.708.707.708-.707Zm24.672 4.032.413.91.009-.004.008-.003-.43-.903Zm7.68-6.048.678-.735-.762-.704-.676.788.76.651Zm9.984 9.216.773.634.598-.73-.693-.639-.678.735Zm-11.904 8.928-.397-.918-.005.002.402.916Zm-15.84 2.072c-5.076 0-9.789-.814-14.148-2.433l-.697 1.874c4.601 1.71 9.552 2.559 14.845 2.559v-2ZM159.4 91.316c-4.3-1.683-8.027-4.045-11.192-7.086l-1.385 1.442c3.363 3.231 7.316 5.733 11.848 7.506l.729-1.862Zm-11.192-7.086c-3.167-3.044-5.653-6.615-7.457-10.721l-1.831.804c1.908 4.342 4.543 8.13 7.903 11.36l1.385-1.443Zm-7.452-10.71c-1.734-4.088-2.608-8.593-2.608-13.529h-2c0 5.176.917 9.95 2.767 14.31l1.841-.78Zm-2.608-13.529c0-4.936.874-9.441 2.608-13.53l-1.841-.78c-1.85 4.359-2.767 9.134-2.767 14.31h2Zm2.603-13.518c1.804-4.106 4.29-7.677 7.457-10.72l-1.385-1.443c-3.36 3.228-5.995 7.017-7.903 11.359l1.831.804Zm7.45-10.714c3.229-3.043 6.987-5.373 11.283-6.992l-.705-1.872c-4.536 1.71-8.522 4.179-11.949 7.408l1.371 1.456Zm11.295-6.997c4.288-1.678 8.995-2.523 14.132-2.523v-2c-5.36 0-10.317.883-14.861 2.66l.729 1.863Zm14.132-2.523c5.705 0 10.813 1.003 15.342 2.988l.803-1.832c-4.815-2.11-10.203-3.156-16.145-3.156v2Zm15.357 2.994c4.588 1.922 8.423 4.768 11.517 8.544l1.547-1.268c-3.305-4.032-7.407-7.074-12.291-9.12l-.773 1.844Zm11.612 7.175-9.984 9.216 1.357 1.47 9.984-9.216-1.357-1.47Zm-8.554 9.291c-2.385-2.717-5.057-4.76-8.018-6.106l-.827 1.82c2.671 1.215 5.12 3.075 7.342 5.606l1.503-1.32Zm-8.001-6.099c-2.959-1.412-6.18-2.113-9.646-2.113v2c3.189 0 6.112.643 8.785 1.919l.861-1.806Zm-9.646-2.113c-3.247 0-6.252.53-9.004 1.604l.727 1.864c2.496-.974 5.251-1.468 8.277-1.468v-2Zm-9.004 1.604c-2.748 1.073-5.138 2.62-7.16 4.64l1.415 1.415c1.818-1.819 3.972-3.216 6.472-4.191l-.727-1.864Zm-7.16 4.64c-2.017 2.018-3.592 4.401-4.728 7.141l1.847.766c1.04-2.508 2.473-4.669 4.296-6.492l-1.415-1.414Zm-4.736 7.16c-1.075 2.755-1.604 5.792-1.604 9.1h2c0-3.092.494-5.879 1.467-8.373l-1.863-.727Zm-1.604 9.1c0 3.308.529 6.345 1.604 9.1l1.863-.728c-.973-2.493-1.467-5.28-1.467-8.372h-2Zm1.612 9.119c1.136 2.74 2.711 5.123 4.728 7.14l1.415-1.414c-1.823-1.823-3.256-3.983-4.296-6.492l-1.847.766Zm4.728 7.14c2.022 2.022 4.412 3.568 7.16 4.64l.727-1.863c-2.5-.975-4.654-2.373-6.472-4.191l-1.415 1.414Zm7.16 4.64c2.752 1.075 5.757 1.605 9.004 1.605v-2c-3.026 0-5.781-.494-8.277-1.468l-.727 1.864Zm9.004 1.605c3.459 0 6.674-.666 9.629-2.01l-.827-1.82c-2.677 1.216-5.606 1.83-8.802 1.83v2Zm9.646-2.017c2.958-1.412 5.626-3.52 8.009-6.3l-1.519-1.302c-2.225 2.596-4.677 4.52-7.351 5.796l.861 1.806Zm6.571-6.216 9.984 9.216 1.357-1.47-9.984-9.216-1.357 1.47Zm9.889 7.847c-3.096 3.778-6.934 6.658-11.527 8.644l.793 1.836c4.879-2.11 8.978-5.182 12.281-9.212l-1.547-1.268Zm-11.532 8.646c-4.527 1.985-9.667 2.988-15.438 2.988v2c6.005 0 11.424-1.045 16.241-3.156l-.803-1.832Zm38.949 2.836h-1v1h1v-1Zm0-27.456.936-.353-1.936.353h1Zm3.552 9.408-.857.515 1.793-.868-.936.353Zm-29.568-49.152v-1h-1.768l.911 1.515.857-.515Zm16.512 0 .858-.515-.292-.485h-.566v1Zm22.656 37.728v1h1.767l-.909-1.515-.858.515Zm-9.504 0-.856-.516-.915 1.516h1.771v-1Zm22.752-37.728v-1h-.564l-.292.484.856.516Zm15.264 0 .857.515.912-1.515h-1.769v1Zm-29.568 49.152-.938-.345 1.795.86-.857-.515Zm3.456-9.408h1l-1.938-.345.938.345Zm0 27.456v1h1v-1h-1Zm-14.552 0V66.135h-2v27.456h2Zm-1.935-27.103 3.552 9.408 1.871-.706-3.552-9.408-1.871.706Zm5.344 8.54L202.76 25.875l-1.714 1.031 29.568 49.152 1.714-1.03ZM201.903 27.39h16.512v-2h-16.512v2Zm15.655-.485 22.656 37.728 1.715-1.03-22.656-37.728-1.715 1.03Zm23.513 36.213h-9.504v2h9.504v-2Zm-8.647 1.516 22.752-37.728-1.713-1.032-22.752 37.728 1.713 1.032Zm21.895-37.244h15.264v-2h-15.264v2Zm14.407-1.515-29.568 49.151 1.714 1.031 29.568-49.152-1.714-1.03Zm-27.772 50.012 3.456-9.408-1.877-.69-3.456 9.408 1.877.69Zm1.517-9.753v27.456h2V66.135h-2Zm1 26.456h-15.552v2h15.552v-2Z" fill="#000" mask="url(#a)"/><mask id="b" maskUnits="userSpaceOnUse" x="275.674" y="22.591" width="170" height="74" fill="#000"><path fill="#fff" d="M275.674 22.591h170v74h-170z"/><path d="m280.33 93.591 29.664-67.2h18.72l29.76 67.2h-19.776l-23.232-57.888h7.488l-23.232 57.888H280.33Zm16.224-13.056 4.896-14.016h32.832l4.896 14.016h-42.624Zm67.309 13.056v-67.2h15.648l27.84 45.696h-8.256l27.072-45.696h15.648l.192 67.2h-17.472l-.192-40.608h2.976l-20.256 33.984h-8.448l-20.832-33.984h3.648v40.608h-17.568Z"/></mask><path d="m280.33 93.591-2.744-1.212-1.86 4.212h4.604v-3Zm29.664-67.2v-3h-1.955l-.789 1.789 2.744 1.211Zm18.72 0 2.743-1.215-.79-1.785h-1.953v3Zm29.76 67.2v3h4.61l-1.867-4.215-2.743 1.215Zm-19.776 0-2.784 1.117.755 1.883h2.029v-3Zm-23.232-57.888v-3h-4.436l1.652 4.117 2.784-1.117Zm7.488 0 2.784 1.117 1.653-4.117h-4.437v3Zm-23.232 57.888v3h2.029l.755-1.883-2.784-1.117Zm-3.168-13.056-2.832-.99-1.394 3.99h4.226v-3Zm4.896-14.016v-3h-2.13l-.702 2.01 2.832.99Zm32.832 0 2.832-.99-.702-2.01h-2.13v3Zm4.896 14.016v3h4.226l-1.394-3.99-2.832.99Zm-56.103 14.267 29.664-67.2-5.489-2.422-29.664 67.2 5.489 2.422Zm26.919-65.411h18.72v-6h-18.72v6Zm15.977-1.785 29.76 67.2 5.486-2.43-29.76-67.2-5.486 2.43Zm32.503 62.985h-19.776v6h19.776v-6Zm-16.992 1.883L318.25 34.586l-5.568 2.234 23.232 57.888 5.568-2.234Zm-26.016-53.771h7.488v-6h-7.488v6Zm4.704-4.117-23.232 57.888 5.568 2.234 23.232-57.888-5.568-2.234ZM299.722 90.59H280.33v6h19.392v-6Zm-.336-9.067 4.896-14.016-5.664-1.978-4.896 14.016 5.664 1.978Zm2.064-12.005h32.832v-6H301.45v6Zm30-2.01 4.896 14.015 5.664-1.978-4.896-14.016-5.664 1.978Zm7.728 10.026h-42.624v6h42.624v-6Zm24.685 16.056h-3v3h3v-3Zm0-67.2v-3h-3v3h3Zm15.648 0 2.562-1.56-.877-1.44h-1.685v3Zm27.84 45.696v3h5.34l-2.778-4.56-2.562 1.56Zm-8.256 0-2.581-1.53-2.683 4.53h5.264v-3Zm27.072-45.696v-3h-1.71l-.871 1.47 2.581 1.53Zm15.648 0 3-.009-.009-2.991h-2.991v3Zm.192 67.2v3h3.008l-.008-3.009-3 .009Zm-17.472 0-3 .014.014 2.986h2.986v-3Zm-.192-40.608v-3h-3.014l.014 3.014 3-.014Zm2.976 0 2.577 1.536 2.703-4.536h-5.28v3Zm-20.256 33.984v3h1.704l.873-1.464-2.577-1.536Zm-8.448 0-2.558 1.568.878 1.432h1.68v-3Zm-20.832-33.984v-3h-5.358l2.8 4.568 2.558-1.568Zm3.648 0h3v-3h-3v3Zm0 40.608v3h3v-3h-3Zm-14.568 0v-67.2h-6v67.2h6Zm-3-64.2h15.648v-6h-15.648v6Zm13.086-1.44 27.84 45.697 5.124-3.122-27.84-45.696-5.124 3.122Zm30.402 41.136h-8.256v6h8.256v-6Zm-5.675 4.53 27.072-45.697-5.162-3.058-27.072 45.696 5.162 3.058Zm24.491-44.226h15.648v-6h-15.648v6Zm12.648-2.991.192 67.2 6-.018-.192-67.2-6 .017Zm3.192 64.191h-17.472v6h17.472v-6Zm-14.472 2.986-.192-40.608-6 .028.192 40.608 6-.028Zm-3.192-37.594h2.976v-6h-2.976v6Zm.399-4.536-20.256 33.984 5.154 3.072 20.256-33.984-5.154-3.072Zm-17.679 32.52h-8.448v6h8.448v-6Zm-5.89 1.432-20.832-33.984-5.116 3.136 20.832 33.984 5.116-3.136Zm-23.39-29.416h3.648v-6h-3.648v6Zm.648-3v40.608h6V52.983h-6Zm3 37.608h-17.568v6h17.568v-6Z" fill="#000" mask="url(#b)"/></svg>