<svg width="454" height="132" fill="none" xmlns="http://www.w3.org/2000/svg"><mask id="a" maskUnits="userSpaceOnUse" x="6.772" y="23.591" width="265" height="73" fill="#000"><path fill="#fff" d="M6.772 23.591h265v73h-265z"/><path d="M8.74 93.591v-67.2h15.552v54.528h33.696v12.672H8.74Zm87.137 1.152c-9.536 0-16.992-2.656-22.368-7.968-5.376-5.312-8.064-12.896-8.064-22.752V26.391h15.552v37.056c0 6.4 1.312 11.008 3.936 13.824 2.624 2.816 6.304 4.224 11.04 4.224 4.736 0 8.416-1.408 11.04-4.224 2.624-2.816 3.936-7.424 3.936-13.824V26.391h15.36v37.632c0 9.856-2.688 17.44-8.064 22.752-5.376 5.312-12.832 7.968-22.368 7.968Zm77.96 0c-5.184 0-10.016-.832-14.496-2.496-4.416-1.728-8.256-4.16-11.52-7.296-3.264-3.136-5.824-6.816-7.68-11.04-1.792-4.224-2.688-8.864-2.688-13.92 0-5.056.896-9.696 2.688-13.92 1.856-4.224 4.416-7.904 7.68-11.04 3.328-3.136 7.2-5.536 11.616-7.2 4.416-1.728 9.248-2.592 14.496-2.592 5.824 0 11.072 1.024 15.744 3.072 4.736 1.984 8.704 4.928 11.904 8.832l-9.984 9.216c-2.304-2.624-4.864-4.576-7.68-5.856-2.816-1.344-5.888-2.016-9.216-2.016-3.136 0-6.016.512-8.64 1.536-2.624 1.024-4.896 2.496-6.816 4.416-1.92 1.92-3.424 4.192-4.512 6.816-1.024 2.624-1.536 5.536-1.536 8.736 0 3.2.512 6.112 1.536 8.736 1.088 2.624 2.592 4.896 4.512 6.816 1.92 1.92 4.192 3.392 6.816 4.416 2.624 1.024 5.504 1.536 8.64 1.536 3.328 0 6.4-.64 9.216-1.92 2.816-1.344 5.376-3.36 7.68-6.048l9.984 9.216c-3.2 3.904-7.168 6.88-11.904 8.928-4.672 2.048-9.952 3.072-15.84 3.072Zm54.388-1.152V66.135l3.552 9.408-29.568-49.152h16.512l22.656 37.728h-9.504l22.752-37.728h15.264l-29.568 49.152 3.456-9.408v27.456h-15.552Z"/></mask><path d="M8.74 93.591v-67.2h15.552v54.528h33.696v12.672H8.74Zm87.137 1.152c-9.536 0-16.992-2.656-22.368-7.968-5.376-5.312-8.064-12.896-8.064-22.752V26.391h15.552v37.056c0 6.4 1.312 11.008 3.936 13.824 2.624 2.816 6.304 4.224 11.04 4.224 4.736 0 8.416-1.408 11.04-4.224 2.624-2.816 3.936-7.424 3.936-13.824V26.391h15.36v37.632c0 9.856-2.688 17.44-8.064 22.752-5.376 5.312-12.832 7.968-22.368 7.968Zm77.96 0c-5.184 0-10.016-.832-14.496-2.496-4.416-1.728-8.256-4.16-11.52-7.296-3.264-3.136-5.824-6.816-7.68-11.04-1.792-4.224-2.688-8.864-2.688-13.92 0-5.056.896-9.696 2.688-13.92 1.856-4.224 4.416-7.904 7.68-11.04 3.328-3.136 7.2-5.536 11.616-7.2 4.416-1.728 9.248-2.592 14.496-2.592 5.824 0 11.072 1.024 15.744 3.072 4.736 1.984 8.704 4.928 11.904 8.832l-9.984 9.216c-2.304-2.624-4.864-4.576-7.68-5.856-2.816-1.344-5.888-2.016-9.216-2.016-3.136 0-6.016.512-8.64 1.536-2.624 1.024-4.896 2.496-6.816 4.416-1.92 1.92-3.424 4.192-4.512 6.816-1.024 2.624-1.536 5.536-1.536 8.736 0 3.2.512 6.112 1.536 8.736 1.088 2.624 2.592 4.896 4.512 6.816 1.92 1.92 4.192 3.392 6.816 4.416 2.624 1.024 5.504 1.536 8.64 1.536 3.328 0 6.4-.64 9.216-1.92 2.816-1.344 5.376-3.36 7.68-6.048l9.984 9.216c-3.2 3.904-7.168 6.88-11.904 8.928-4.672 2.048-9.952 3.072-15.84 3.072Zm54.388-1.152V66.135l3.552 9.408-29.568-49.152h16.512l22.656 37.728h-9.504l22.752-37.728h15.264l-29.568 49.152 3.456-9.408v27.456h-15.552Z" fill="#000"/><path d="M8.74 93.591h-1v1h1v-1Zm0-67.2v-1h-1v1h1Zm15.552 0h1v-1h-1v1Zm0 54.528h-1v1h1v-1Zm33.696 0h1v-1h-1v1Zm0 12.672v1h1v-1h-1Zm-48.248 0v-67.2h-2v67.2h2Zm-1-66.2h15.552v-2H8.74v2Zm14.552-1v54.528h2V26.391h-2Zm1 55.528h33.696v-2H24.292v2Zm32.696-1v12.672h2V80.919h-2Zm1 11.672H8.74v2h49.248v-2Zm15.521-5.816.703-.711-.703.711Zm-8.064-60.384v-1h-1v1h1Zm15.552 0h1v-1h-1v1Zm3.936 50.88-.732.682.732-.682Zm22.08 0 .732.682-.732-.682Zm3.936-50.88v-1h-1v1h1Zm15.36 0h1v-1h-1v1Zm-8.064 60.384.703.711-.703-.711Zm-22.368 6.968c-9.345 0-16.522-2.598-21.665-7.68l-1.406 1.423c5.61 5.543 13.344 8.257 23.071 8.257v-2Zm-21.665-7.68c-5.133-5.071-7.767-12.367-7.767-22.04h-2c0 10.038 2.742 17.911 8.361 23.463l1.406-1.422Zm-7.767-22.04V26.391h-2v37.632h2Zm-1-36.632h15.552v-2H65.445v2Zm14.552-1v37.056h2V26.391h-2Zm0 37.056c0 6.496 1.325 11.415 4.204 14.506l1.464-1.364c-2.368-2.541-3.668-6.838-3.668-13.142h-2Zm4.204 14.506c2.856 3.064 6.827 4.542 11.772 4.542v-2c-4.527 0-7.916-1.338-10.308-3.906L84.2 77.953Zm11.772 4.542c4.945 0 8.916-1.478 11.772-4.542l-1.463-1.364c-2.393 2.568-5.782 3.906-10.309 3.906v2Zm11.772-4.542c2.88-3.091 4.204-8.01 4.204-14.506h-2c0 6.304-1.299 10.6-3.667 13.142l1.463 1.364Zm4.204-14.506V26.391h-2v37.056h2Zm-1-36.056h15.36v-2h-15.36v2Zm14.36-1v37.632h2V26.391h-2Zm0 37.632c0 9.674-2.634 16.969-7.767 22.04l1.406 1.423c5.619-5.552 8.361-13.425 8.361-23.463h-2Zm-7.767 22.04c-5.143 5.082-12.32 7.68-21.665 7.68v2c9.727 0 17.462-2.714 23.071-8.257l-1.406-1.422Zm41.799 6.184-.364.931.008.003.008.003.348-.937Zm-11.52-7.296-.692.721.692-.721Zm-7.68-11.04-.92.39.005.012.915-.402Zm0-27.84-.915-.402-.005.011.92.391Zm7.68-11.04-.685-.728-.007.007.692.721Zm11.616-7.2.353.936.012-.005-.365-.931Zm30.24.48-.401.916.007.003.008.003.386-.922Zm11.904 8.832.679.735.692-.64-.597-.729-.774.634Zm-9.984 9.216-.751.66.676.77.754-.695-.679-.735Zm-7.68-5.856-.43.903.008.004.009.003.413-.91Zm-24.672 3.936.707.707-.707-.707Zm-4.512 6.816-.923-.383-.004.01-.004.01.931.363Zm0 17.472-.931.364.004.01.004.009.923-.383Zm4.512 6.816-.707.707.707-.707Zm24.672 4.032.414.91.009-.004.008-.003-.431-.903Zm7.68-6.048.679-.735-.763-.704-.675.788.759.651Zm9.984 9.216.774.634.597-.73-.692-.639-.679.735Zm-11.904 8.928-.397-.918-.004.002.401.916Zm-15.84 2.072c-5.075 0-9.788-.814-14.147-2.433l-.697 1.874c4.601 1.71 9.552 2.559 14.844 2.559v-2Zm-14.131-2.427c-4.3-1.683-8.027-4.045-11.192-7.086l-1.385 1.442c3.363 3.231 7.316 5.733 11.848 7.506l.729-1.862Zm-11.192-7.086c-3.168-3.044-5.653-6.615-7.457-10.721l-1.831.804c1.907 4.342 4.542 8.13 7.903 11.36l1.385-1.443Zm-7.452-10.71c-1.735-4.088-2.609-8.593-2.609-13.529h-2c0 5.176.918 9.95 2.768 14.31l1.841-.78Zm-2.609-13.529c0-4.936.874-9.441 2.609-13.53l-1.841-.78c-1.85 4.359-2.768 9.134-2.768 14.31h2Zm2.604-13.518c1.804-4.106 4.289-7.677 7.457-10.72l-1.385-1.443c-3.361 3.228-5.996 7.017-7.903 11.359l1.831.804Zm7.45-10.714c3.229-3.043 6.987-5.373 11.283-6.992l-.705-1.872c-4.536 1.71-8.522 4.179-11.949 7.408l1.371 1.456Zm11.295-6.997c4.288-1.678 8.995-2.523 14.131-2.523v-2c-5.359 0-10.316.883-14.86 2.66l.729 1.863Zm14.131-2.523c5.706 0 10.814 1.003 15.343 2.988l.803-1.832c-4.815-2.11-10.203-3.156-16.146-3.156v2Zm15.358 2.994c4.588 1.922 8.422 4.768 11.517 8.544l1.547-1.268c-3.306-4.032-7.407-7.074-12.291-9.12l-.773 1.844Zm11.612 7.175-9.984 9.216 1.357 1.47 9.984-9.216-1.357-1.47Zm-8.554 9.291c-2.386-2.717-5.057-4.76-8.018-6.106l-.827 1.82c2.671 1.215 5.119 3.075 7.342 5.606l1.503-1.32Zm-8.001-6.099c-2.959-1.412-6.18-2.113-9.647-2.113v2c3.189 0 6.113.643 8.786 1.919l.861-1.806Zm-9.647-2.113c-3.246 0-6.251.53-9.003 1.604l.727 1.864c2.496-.974 5.251-1.468 8.276-1.468v-2Zm-9.003 1.604c-2.748 1.073-5.138 2.62-7.16 4.64l1.414 1.415c1.819-1.819 3.973-3.216 6.473-4.191l-.727-1.864Zm-7.16 4.64c-2.017 2.018-3.592 4.401-4.728 7.141l1.847.766c1.04-2.508 2.473-4.669 4.295-6.492l-1.414-1.414Zm-4.736 7.16c-1.075 2.755-1.605 5.792-1.605 9.1h2c0-3.092.495-5.879 1.468-8.373l-1.863-.727Zm-1.605 9.1c0 3.308.53 6.345 1.605 9.1l1.863-.728c-.973-2.493-1.468-5.28-1.468-8.372h-2Zm1.613 9.119c1.136 2.74 2.711 5.123 4.728 7.14l1.414-1.414c-1.822-1.823-3.255-3.983-4.295-6.492l-1.847.766Zm4.728 7.14c2.022 2.022 4.412 3.568 7.16 4.64l.727-1.863c-2.5-.975-4.654-2.373-6.473-4.191l-1.414 1.414Zm7.16 4.64c2.752 1.075 5.757 1.605 9.003 1.605v-2c-3.025 0-5.78-.494-8.276-1.468l-.727 1.864Zm9.003 1.605c3.46 0 6.675-.666 9.63-2.01l-.827-1.82c-2.677 1.216-5.606 1.83-8.803 1.83v2Zm9.647-2.017c2.958-1.412 5.626-3.52 8.009-6.3l-1.519-1.302c-2.225 2.596-4.677 4.52-7.351 5.796l.861 1.806Zm6.571-6.216 9.984 9.216 1.357-1.47-9.984-9.216-1.357 1.47Zm9.889 7.847c-3.097 3.778-6.935 6.658-11.528 8.644l.794 1.836c4.879-2.11 8.977-5.182 12.281-9.212l-1.547-1.268Zm-11.532 8.646c-4.527 1.985-9.668 2.988-15.439 2.988v2c6.005 0 11.425-1.045 16.242-3.156l-.803-1.832Zm38.949 2.836h-1v1h1v-1Zm0-27.456.936-.353-1.936.353h1Zm3.552 9.408-.857.515 1.793-.868-.936.353Zm-29.568-49.152v-1h-1.768l.911 1.515.857-.515Zm16.512 0 .857-.515-.291-.485h-.566v1Zm22.656 37.728v1h1.767l-.91-1.515-.857.515Zm-9.504 0-.856-.516-.915 1.516h1.771v-1Zm22.752-37.728v-1h-.565l-.291.484.856.516Zm15.264 0 .857.515.912-1.515h-1.769v1Zm-29.568 49.152-.939-.345 1.796.86-.857-.515Zm3.456-9.408h1l-1.939-.345.939.345Zm0 27.456v1h1v-1h-1Zm-14.552 0V66.135h-2v27.456h2Zm-1.935-27.103 3.552 9.408 1.871-.706-3.552-9.408-1.871.706Zm5.344 8.54-29.568-49.153-1.714 1.031 29.568 49.152 1.714-1.03ZM202.209 27.39h16.512v-2h-16.512v2Zm15.655-.485 22.656 37.728 1.714-1.03-22.656-37.728-1.714 1.03Zm23.513 36.213h-9.504v2h9.504v-2Zm-8.648 1.516 22.752-37.728-1.712-1.032-22.752 37.728 1.712 1.032Zm21.896-37.244h15.264v-2h-15.264v2Zm14.407-1.515-29.568 49.151 1.714 1.031 29.568-49.152-1.714-1.03ZM241.26 75.888l3.456-9.408-1.878-.69-3.456 9.408 1.878.69Zm1.517-9.753v27.456h2V66.135h-2Zm1 26.456h-15.552v2h15.552v-2Z" fill="#000" mask="url(#a)"/><mask id="b" maskUnits="userSpaceOnUse" x="275.98" y="22.591" width="170" height="74" fill="#000"><path fill="#fff" d="M275.98 22.591h170v74h-170z"/><path d="m280.636 93.591 29.664-67.2h18.72l29.76 67.2h-19.776l-23.232-57.888h7.488l-23.232 57.888h-19.392Zm16.224-13.056 4.896-14.016h32.832l4.896 14.016H296.86Zm67.309 13.056v-67.2h15.648l27.84 45.696h-8.256l27.072-45.696h15.648l.192 67.2h-17.472l-.192-40.608h2.976l-20.256 33.984h-8.448l-20.832-33.984h3.648v40.608h-17.568Z"/></mask><path d="m280.636 93.591-2.745-1.212-1.859 4.212h4.604v-3Zm29.664-67.2v-3h-1.955l-.79 1.789 2.745 1.211Zm18.72 0 2.743-1.215-.791-1.785h-1.952v3Zm29.76 67.2v3h4.61l-1.867-4.215-2.743 1.215Zm-19.776 0-2.784 1.117.755 1.883h2.029v-3Zm-23.232-57.888v-3h-4.437l1.653 4.117 2.784-1.117Zm7.488 0 2.784 1.117 1.652-4.117h-4.436v3Zm-23.232 57.888v3h2.029l.755-1.883-2.784-1.117Zm-3.168-13.056-2.832-.99-1.394 3.99h4.226v-3Zm4.896-14.016v-3h-2.13l-.702 2.01 2.832.99Zm32.832 0 2.832-.99-.702-2.01h-2.13v3Zm4.896 14.016v3h4.226l-1.394-3.99-2.832.99ZM283.38 94.802l29.664-67.2-5.489-2.422-29.664 67.2 5.489 2.422Zm26.92-65.411h18.72v-6H310.3v6Zm15.977-1.785 29.76 67.2 5.486-2.43-29.76-67.2-5.486 2.43ZM358.78 90.59h-19.776v6h19.776v-6Zm-16.992 1.883-23.232-57.888-5.568 2.234 23.232 57.888 5.568-2.234Zm-26.016-53.771h7.488v-6h-7.488v6Zm4.704-4.117-23.232 57.888 5.568 2.234 23.232-57.888-5.568-2.234ZM300.028 90.59h-19.392v6h19.392v-6Zm-.336-9.067 4.896-14.016-5.664-1.978-4.896 14.016 5.664 1.978Zm2.064-12.005h32.832v-6h-32.832v6Zm30-2.01 4.896 14.015 5.664-1.978-4.896-14.016-5.664 1.978Zm7.728 10.026H296.86v6h42.624v-6Zm24.685 16.056h-3v3h3v-3Zm0-67.2v-3h-3v3h3Zm15.648 0 2.562-1.56-.877-1.44h-1.685v3Zm27.84 45.696v3h5.34l-2.778-4.56-2.562 1.56Zm-8.256 0-2.581-1.53-2.684 4.53h5.265v-3Zm27.072-45.696v-3h-1.71l-.871 1.47 2.581 1.53Zm15.648 0 3-.009-.009-2.991h-2.991v3Zm.192 67.2v3h3.008l-.008-3.009-3 .009Zm-17.472 0-3 .014.014 2.986h2.986v-3Zm-.192-40.608v-3h-3.015l.015 3.014 3-.014Zm2.976 0 2.577 1.536 2.703-4.536h-5.28v3Zm-20.256 33.984v3h1.704l.873-1.464-2.577-1.536Zm-8.448 0-2.558 1.568.878 1.432h1.68v-3Zm-20.832-33.984v-3h-5.358l2.8 4.568 2.558-1.568Zm3.648 0h3v-3h-3v3Zm0 40.608v3h3v-3h-3Zm-14.568 0v-67.2h-6v67.2h6Zm-3-64.2h15.648v-6h-15.648v6Zm13.086-1.44 27.84 45.697 5.124-3.122-27.84-45.696-5.124 3.122Zm30.402 41.136h-8.256v6h8.256v-6Zm-5.675 4.53 27.072-45.697-5.162-3.058-27.072 45.696 5.162 3.058Zm24.491-44.226h15.648v-6h-15.648v6Zm12.648-2.991.192 67.2 6-.018-.192-67.2-6 .017Zm3.192 64.191h-17.472v6h17.472v-6Zm-14.472 2.986-.192-40.608-6 .028.192 40.608 6-.028Zm-3.192-37.594h2.976v-6h-2.976v6Zm.399-4.536-20.256 33.984 5.154 3.072 20.256-33.984-5.154-3.072Zm-17.679 32.52h-8.448v6h8.448v-6Zm-5.891 1.432-20.832-33.984-5.115 3.136 20.832 33.984 5.115-3.136Zm-23.389-29.416h3.648v-6h-3.648v6Zm.648-3v40.608h6V52.983h-6Zm3 37.608h-17.568v6h17.568v-6Z" fill="#000" mask="url(#b)"/><path d="M8.512 126.288c-1.344 0-2.632-.176-3.864-.528-1.232-.368-2.224-.84-2.976-1.416l1.32-2.928c.72.512 1.568.936 2.544 1.272.992.32 1.992.48 3 .48.768 0 1.384-.072 1.848-.216.48-.16.832-.376 1.056-.648a1.43 1.43 0 0 0 .336-.936c0-.448-.176-.8-.528-1.056-.352-.272-.816-.488-1.392-.648a20.999 20.999 0 0 0-1.92-.48 27.233 27.233 0 0 1-2.088-.576 8.91 8.91 0 0 1-1.896-.864 4.358 4.358 0 0 1-1.416-1.392c-.352-.576-.528-1.312-.528-2.208 0-.96.256-1.832.768-2.616.528-.8 1.312-1.432 2.352-1.896 1.056-.48 2.376-.72 3.96-.72 1.056 0 2.096.128 3.12.384 1.024.24 1.928.608 2.712 1.104l-1.2 2.952a9.82 9.82 0 0 0-2.352-.984 8.363 8.363 0 0 0-2.304-.336c-.752 0-1.368.088-1.848.264-.48.176-.824.408-1.032.696a1.535 1.535 0 0 0-.312.96c0 .432.176.784.528 1.056.352.256.816.464 1.392.624.576.16 1.208.32 1.896.48.704.16 1.4.344 2.088.552a8.02 8.02 0 0 1 1.92.84c.576.352 1.04.816 1.392 1.392.368.576.552 1.304.552 2.184 0 .944-.264 1.808-.792 2.592s-1.32 1.416-2.376 1.896c-1.04.48-2.36.72-3.96.72Zm9.52-.288v-12.912h3.745V126h-3.744Zm1.873-14.712c-.688 0-1.248-.2-1.68-.6a1.946 1.946 0 0 1-.648-1.488c0-.592.216-1.088.648-1.488.432-.4.992-.6 1.68-.6s1.248.192 1.68.576c.432.368.648.848.648 1.44 0 .624-.216 1.144-.648 1.56-.416.4-.976.6-1.68.6Zm21.882 1.608c1.024 0 1.928.208 2.712.624.8.4 1.424 1.024 1.872 1.872.464.832.696 1.904.696 3.216V126h-3.744v-6.816c0-1.04-.216-1.808-.648-2.304-.432-.496-1.04-.744-1.824-.744-.544 0-1.032.128-1.464.384-.432.24-.768.608-1.008 1.104-.24.496-.36 1.128-.36 1.896V126h-3.744v-6.816c0-1.04-.216-1.808-.648-2.304-.416-.496-1.016-.744-1.8-.744-.544 0-1.032.128-1.464.384-.432.24-.768.608-1.008 1.104-.24.496-.36 1.128-.36 1.896V126h-3.744v-12.912h3.576v3.528l-.672-1.032c.448-.88 1.08-1.544 1.896-1.992.832-.464 1.776-.696 2.832-.696 1.184 0 2.216.304 3.096.912.896.592 1.488 1.504 1.776 2.736l-1.32-.36a5.189 5.189 0 0 1 2.064-2.4c.96-.592 2.056-.888 3.288-.888Zm16.268 13.296c-1.088 0-2.04-.24-2.856-.72-.816-.48-1.456-1.208-1.92-2.184-.448-.992-.672-2.24-.672-3.744 0-1.52.216-2.768.648-3.744.432-.976 1.056-1.704 1.872-2.184.816-.48 1.792-.72 2.928-.72 1.216 0 2.304.28 3.264.84a5.907 5.907 0 0 1 2.304 2.304c.576.992.864 2.16.864 3.504 0 1.36-.288 2.536-.864 3.528a5.907 5.907 0 0 1-2.304 2.304c-.96.544-2.048.816-3.264.816Zm-7.632 4.464v-17.568H54v2.64l-.072 3.84.24 3.816v7.272h-3.744Zm6.984-7.536c.624 0 1.176-.144 1.656-.432a3.095 3.095 0 0 0 1.176-1.224c.304-.544.456-1.184.456-1.92 0-.752-.152-1.392-.456-1.92a3.095 3.095 0 0 0-1.176-1.224c-.48-.288-1.032-.432-1.656-.432-.624 0-1.184.144-1.68.432a3.095 3.095 0 0 0-1.176 1.224c-.288.528-.432 1.168-.432 1.92 0 .736.144 1.376.432 1.92.288.528.68.936 1.176 1.224a3.284 3.284 0 0 0 1.68.432Zm9.587 2.88v-17.808h3.744V126h-3.744Zm7.218 0v-12.912h3.744V126h-3.744Zm1.872-14.712c-.688 0-1.248-.2-1.68-.6a1.946 1.946 0 0 1-.648-1.488c0-.592.216-1.088.648-1.488.432-.4.992-.6 1.68-.6s1.248.192 1.68.576c.432.368.648.848.648 1.44 0 .624-.216 1.144-.648 1.56-.416.4-.976.6-1.68.6ZM81.887 126v-13.2c0-1.456.432-2.616 1.296-3.48.864-.88 2.096-1.32 3.696-1.32.544 0 1.064.056 1.56.168.512.112.944.288 1.296.528l-.984 2.712a2.55 2.55 0 0 0-.696-.336 2.72 2.72 0 0 0-.816-.12c-.544 0-.968.16-1.272.48-.288.304-.432.768-.432 1.392v1.2l.096 1.608V126h-3.744Zm-1.992-9.744v-2.88h8.952v2.88h-8.952Zm12.684 14.592a6.555 6.555 0 0 1-1.992-.312c-.656-.208-1.192-.496-1.608-.864l1.368-2.664c.288.256.616.456.984.6a3.2 3.2 0 0 0 1.128.216c.528 0 .944-.128 1.248-.384.32-.24.608-.648.864-1.224l.672-1.584.288-.408 4.632-11.136h3.6l-5.832 13.704c-.416 1.04-.896 1.856-1.44 2.448-.528.592-1.12 1.008-1.776 1.248-.64.24-1.352.36-2.136.36Zm2.208-4.344-5.76-13.416h3.864l4.464 10.8-2.568 2.616ZM105.29 126v-12.912h3.744V126h-3.744Zm1.872-14.712c-.688 0-1.248-.2-1.68-.6a1.946 1.946 0 0 1-.648-1.488c0-.592.216-1.088.648-1.488.432-.4.992-.6 1.68-.6s1.248.192 1.68.576c.432.368.648.848.648 1.44 0 .624-.216 1.144-.648 1.56-.416.4-.976.6-1.68.6Zm13.194 1.608c1.024 0 1.936.208 2.736.624.816.4 1.456 1.024 1.92 1.872.464.832.696 1.904.696 3.216V126h-3.744v-6.816c0-1.04-.232-1.808-.696-2.304-.448-.496-1.088-.744-1.92-.744-.592 0-1.128.128-1.608.384-.464.24-.832.616-1.104 1.128-.256.512-.384 1.168-.384 1.968V126h-3.744v-12.912h3.576v3.576l-.672-1.08a4.782 4.782 0 0 1 1.992-1.992c.864-.464 1.848-.696 2.952-.696Zm14.912 17.952c-1.216 0-2.392-.152-3.528-.456-1.12-.288-2.056-.728-2.808-1.32l1.488-2.688c.544.448 1.232.8 2.064 1.056.848.272 1.68.408 2.496.408 1.328 0 2.288-.296 2.88-.888.608-.592.912-1.472.912-2.64v-1.944l.24-3.24-.048-3.264v-2.784h3.552v10.752c0 2.4-.624 4.168-1.872 5.304-1.248 1.136-3.04 1.704-5.376 1.704Zm-.576-5.472c-1.2 0-2.288-.256-3.264-.768a6.351 6.351 0 0 1-2.328-2.184c-.576-.944-.864-2.04-.864-3.288 0-1.264.288-2.36.864-3.288a6.098 6.098 0 0 1 2.328-2.184c.976-.512 2.064-.768 3.264-.768 1.088 0 2.048.224 2.88.672.832.432 1.48 1.112 1.944 2.04.464.912.696 2.088.696 3.528 0 1.424-.232 2.6-.696 3.528-.464.912-1.112 1.592-1.944 2.04-.832.448-1.792.672-2.88.672Zm.744-3.072c.656 0 1.24-.128 1.752-.384a3.022 3.022 0 0 0 1.2-1.128c.288-.48.432-1.032.432-1.656 0-.64-.144-1.192-.432-1.656a2.86 2.86 0 0 0-1.2-1.104c-.512-.272-1.096-.408-1.752-.408-.656 0-1.24.136-1.752.408a3.02 3.02 0 0 0-1.224 1.104c-.288.464-.432 1.016-.432 1.656 0 .624.144 1.176.432 1.656.304.48.712.856 1.224 1.128.512.256 1.096.384 1.752.384ZM150.854 126l7.488-16.8h3.84l7.512 16.8h-4.08l-6.144-14.832h1.536L154.838 126h-3.984Zm3.744-3.6 1.032-2.952h8.64l1.056 2.952h-10.728Zm16.839 3.6v-16.8h3.888V126h-3.888Zm6.963 3.696 1.584-5.76.528 2.16c-.688 0-1.256-.2-1.704-.6-.432-.4-.648-.952-.648-1.656s.224-1.264.672-1.68c.448-.416 1-.624 1.656-.624.672 0 1.224.216 1.656.648.432.416.648.968.648 1.656 0 .208-.016.416-.048.624a4.935 4.935 0 0 1-.192.72c-.08.272-.216.624-.408 1.056l-1.368 3.456H178.4ZM192.39 126v-16.8h7.272c1.504 0 2.8.248 3.888.744 1.088.48 1.928 1.176 2.52 2.088.592.912.888 2 .888 3.264 0 1.248-.296 2.328-.888 3.24-.592.912-1.432 1.616-2.52 2.112-1.088.48-2.384.72-3.888.72h-5.112l1.728-1.752V126h-3.888Zm3.888-5.952-1.728-1.848h4.896c1.2 0 2.096-.256 2.688-.768.592-.512.888-1.224.888-2.136 0-.928-.296-1.648-.888-2.16-.592-.512-1.488-.768-2.688-.768h-4.896l1.728-1.848v9.528Zm19.313 6.144c-1.376 0-2.6-.288-3.672-.864a6.726 6.726 0 0 1-2.52-2.352c-.608-1.008-.912-2.152-.912-3.432 0-1.296.304-2.44.912-3.432a6.482 6.482 0 0 1 2.52-2.352c1.072-.576 2.296-.864 3.672-.864 1.36 0 2.576.288 3.648.864 1.072.56 1.912 1.336 2.52 2.328.608.992.912 2.144.912 3.456 0 1.28-.304 2.424-.912 3.432-.608.992-1.448 1.776-2.52 2.352-1.072.576-2.288.864-3.648.864Zm0-3.072c.624 0 1.184-.144 1.68-.432a3.095 3.095 0 0 0 1.176-1.224c.288-.544.432-1.184.432-1.92 0-.752-.144-1.392-.432-1.92a3.095 3.095 0 0 0-1.176-1.224 3.284 3.284 0 0 0-1.68-.432c-.624 0-1.184.144-1.68.432a3.266 3.266 0 0 0-1.2 1.224c-.288.528-.432 1.168-.432 1.92 0 .736.144 1.376.432 1.92.304.528.704.936 1.2 1.224a3.284 3.284 0 0 0 1.68.432Zm12.183 2.88-4.656-12.912h3.528l3.864 11.112h-1.68l4.032-11.112h3.168l3.912 11.112h-1.68l3.984-11.112h3.312L240.878 126h-3.624l-3.432-9.528h1.104L231.374 126h-3.6Zm25.581.192c-1.472 0-2.768-.288-3.888-.864-1.104-.576-1.96-1.36-2.568-2.352-.608-1.008-.912-2.152-.912-3.432 0-1.296.296-2.44.888-3.432a6.353 6.353 0 0 1 2.472-2.352c1.04-.576 2.216-.864 3.528-.864 1.264 0 2.4.272 3.408.816a5.896 5.896 0 0 1 2.424 2.304c.592.992.888 2.184.888 3.576 0 .144-.008.312-.024.504l-.048.504h-10.488v-2.184h8.52l-1.44.648c0-.672-.136-1.256-.408-1.752a2.895 2.895 0 0 0-1.128-1.152c-.48-.288-1.04-.432-1.68-.432-.64 0-1.208.144-1.704.432-.48.272-.856.664-1.128 1.176-.272.496-.408 1.088-.408 1.776v.576c0 .704.152 1.328.456 1.872.32.528.76.936 1.32 1.224.576.272 1.248.408 2.016.408.688 0 1.288-.104 1.8-.312a4.378 4.378 0 0 0 1.44-.936l1.992 2.16c-.592.672-1.336 1.192-2.232 1.56-.896.352-1.928.528-3.096.528Zm8.732-.192v-12.912h3.576v3.648l-.504-1.056c.384-.912 1-1.6 1.848-2.064.848-.48 1.88-.72 3.096-.72v3.456a4.383 4.383 0 0 0-.432-.024 3.293 3.293 0 0 0-.408-.024c-1.024 0-1.856.296-2.496.888-.624.576-.936 1.48-.936 2.712V126h-3.744Zm10.266 0v-12.912h3.744V126h-3.744Zm1.872-14.712c-.688 0-1.248-.2-1.68-.6a1.946 1.946 0 0 1-.648-1.488c0-.592.216-1.088.648-1.488.432-.4.992-.6 1.68-.6s1.248.192 1.68.576c.432.368.648.848.648 1.44 0 .624-.216 1.144-.648 1.56-.416.4-.976.6-1.68.6Zm13.195 1.608c1.024 0 1.936.208 2.736.624.816.4 1.456 1.024 1.92 1.872.464.832.696 1.904.696 3.216V126h-3.744v-6.816c0-1.04-.232-1.808-.696-2.304-.448-.496-1.088-.744-1.92-.744-.592 0-1.128.128-1.608.384-.464.24-.832.616-1.104 1.128-.256.512-.384 1.168-.384 1.968V126h-3.744v-12.912h3.576v3.576l-.672-1.08a4.782 4.782 0 0 1 1.992-1.992c.864-.464 1.848-.696 2.952-.696Zm14.911 17.952c-1.216 0-2.392-.152-3.528-.456-1.12-.288-2.056-.728-2.808-1.32l1.488-2.688c.544.448 1.232.8 2.064 1.056.848.272 1.68.408 2.496.408 1.328 0 2.288-.296 2.88-.888.608-.592.912-1.472.912-2.64v-1.944l.24-3.24-.048-3.264v-2.784h3.552v10.752c0 2.4-.624 4.168-1.872 5.304-1.248 1.136-3.04 1.704-5.376 1.704Zm-.576-5.472c-1.2 0-2.288-.256-3.264-.768a6.351 6.351 0 0 1-2.328-2.184c-.576-.944-.864-2.04-.864-3.288 0-1.264.288-2.36.864-3.288a6.098 6.098 0 0 1 2.328-2.184c.976-.512 2.064-.768 3.264-.768 1.088 0 2.048.224 2.88.672.832.432 1.48 1.112 1.944 2.04.464.912.696 2.088.696 3.528 0 1.424-.232 2.6-.696 3.528-.464.912-1.112 1.592-1.944 2.04-.832.448-1.792.672-2.88.672Zm.744-3.072c.656 0 1.24-.128 1.752-.384a3.022 3.022 0 0 0 1.2-1.128c.288-.48.432-1.032.432-1.656 0-.64-.144-1.192-.432-1.656a2.86 2.86 0 0 0-1.2-1.104c-.512-.272-1.096-.408-1.752-.408-.656 0-1.24.136-1.752.408a3.02 3.02 0 0 0-1.224 1.104c-.288.464-.432 1.016-.432 1.656 0 .624.144 1.176.432 1.656.304.48.712.856 1.224 1.128.512.256 1.096.384 1.752.384ZM320.125 126v-16.8h3.888V126h-3.888Zm15.459-13.104c1.024 0 1.936.208 2.736.624.816.4 1.456 1.024 1.92 1.872.464.832.696 1.904.696 3.216V126h-3.744v-6.816c0-1.04-.232-1.808-.696-2.304-.448-.496-1.088-.744-1.92-.744-.592 0-1.128.128-1.608.384-.464.24-.832.616-1.104 1.128-.256.512-.384 1.168-.384 1.968V126h-3.744v-12.912h3.576v3.576l-.672-1.08a4.782 4.782 0 0 1 1.992-1.992c.864-.464 1.848-.696 2.952-.696Zm16.594 0c1.024 0 1.936.208 2.736.624.816.4 1.456 1.024 1.92 1.872.464.832.696 1.904.696 3.216V126h-3.744v-6.816c0-1.04-.232-1.808-.696-2.304-.448-.496-1.088-.744-1.92-.744-.592 0-1.128.128-1.608.384-.464.24-.832.616-1.104 1.128-.256.512-.384 1.168-.384 1.968V126h-3.744v-12.912h3.576v3.576l-.672-1.08a4.782 4.782 0 0 1 1.992-1.992c.864-.464 1.848-.696 2.952-.696Zm14.983 13.296c-1.376 0-2.6-.288-3.672-.864a6.726 6.726 0 0 1-2.52-2.352c-.608-1.008-.912-2.152-.912-3.432 0-1.296.304-2.44.912-3.432a6.482 6.482 0 0 1 2.52-2.352c1.072-.576 2.296-.864 3.672-.864 1.36 0 2.576.288 3.648.864 1.072.56 1.912 1.336 2.52 2.328.608.992.912 2.144.912 3.456 0 1.28-.304 2.424-.912 3.432-.608.992-1.448 1.776-2.52 2.352-1.072.576-2.288.864-3.648.864Zm0-3.072c.624 0 1.184-.144 1.68-.432a3.095 3.095 0 0 0 1.176-1.224c.288-.544.432-1.184.432-1.92 0-.752-.144-1.392-.432-1.92a3.095 3.095 0 0 0-1.176-1.224 3.284 3.284 0 0 0-1.68-.432c-.624 0-1.184.144-1.68.432a3.266 3.266 0 0 0-1.2 1.224c-.288.528-.432 1.168-.432 1.92 0 .736.144 1.376.432 1.92.304.528.704.936 1.2 1.224a3.284 3.284 0 0 0 1.68.432Zm12.735 2.88-5.424-12.912h3.864l4.512 11.112h-1.92l4.68-11.112h3.6L383.76 126h-3.864Zm18.338 0v-2.52l-.24-.552v-4.512c0-.8-.248-1.424-.744-1.872-.48-.448-1.224-.672-2.232-.672-.688 0-1.368.112-2.04.336-.656.208-1.216.496-1.68.864l-1.344-2.616c.704-.496 1.552-.88 2.544-1.152.992-.272 2-.408 3.024-.408 1.968 0 3.496.464 4.584 1.392 1.088.928 1.632 2.376 1.632 4.344V126h-3.504Zm-3.936.192c-1.008 0-1.872-.168-2.592-.504-.72-.352-1.272-.824-1.656-1.416a3.582 3.582 0 0 1-.576-1.992c0-.768.184-1.44.552-2.016.384-.576.984-1.024 1.8-1.344.816-.336 1.88-.504 3.192-.504h3.432v2.184h-3.024c-.88 0-1.488.144-1.824.432-.32.288-.48.648-.48 1.08 0 .48.184.864.552 1.152.384.272.904.408 1.56.408.624 0 1.184-.144 1.68-.432.496-.304.856-.744 1.08-1.32l.576 1.728c-.272.832-.768 1.464-1.488 1.896-.72.432-1.648.648-2.784.648Zm16.108 0c-1.52 0-2.704-.384-3.552-1.152-.848-.784-1.272-1.944-1.272-3.48v-11.328h3.744v11.28c0 .544.144.968.432 1.272.288.288.68.432 1.176.432.592 0 1.096-.16 1.512-.48l1.008 2.64c-.384.272-.848.48-1.392.624a7.006 7.006 0 0 1-1.656.192Zm-6.816-9.936v-2.88h8.952v2.88h-8.952ZM415.556 126v-12.912h3.744V126h-3.744Zm1.872-14.712c-.688 0-1.248-.2-1.68-.6a1.946 1.946 0 0 1-.648-1.488c0-.592.216-1.088.648-1.488.432-.4.992-.6 1.68-.6s1.248.192 1.68.576c.432.368.648.848.648 1.44 0 .624-.216 1.144-.648 1.56-.416.4-.976.6-1.68.6Zm11.491 14.904c-1.376 0-2.6-.288-3.672-.864a6.726 6.726 0 0 1-2.52-2.352c-.608-1.008-.912-2.152-.912-3.432 0-1.296.304-2.44.912-3.432a6.482 6.482 0 0 1 2.52-2.352c1.072-.576 2.296-.864 3.672-.864 1.36 0 2.576.288 3.648.864 1.072.56 1.912 1.336 2.52 2.328.608.992.912 2.144.912 3.456 0 1.28-.304 2.424-.912 3.432-.608.992-1.448 1.776-2.52 2.352-1.072.576-2.288.864-3.648.864Zm0-3.072c.624 0 1.184-.144 1.68-.432a3.095 3.095 0 0 0 1.176-1.224c.288-.544.432-1.184.432-1.92 0-.752-.144-1.392-.432-1.92a3.095 3.095 0 0 0-1.176-1.224 3.284 3.284 0 0 0-1.68-.432c-.624 0-1.184.144-1.68.432a3.266 3.266 0 0 0-1.2 1.224c-.288.528-.432 1.168-.432 1.92 0 .736.144 1.376.432 1.92.304.528.704.936 1.2 1.224a3.284 3.284 0 0 0 1.68.432Zm17.43-10.224c1.024 0 1.936.208 2.736.624.816.4 1.456 1.024 1.92 1.872.464.832.696 1.904.696 3.216V126h-3.744v-6.816c0-1.04-.232-1.808-.696-2.304-.448-.496-1.088-.744-1.92-.744-.592 0-1.128.128-1.608.384-.464.24-.832.616-1.104 1.128-.256.512-.384 1.168-.384 1.968V126h-3.744v-12.912h3.576v3.576l-.672-1.08a4.782 4.782 0 0 1 1.992-1.992c.864-.464 1.848-.696 2.952-.696Z" fill="#000"/></svg>